NotoSansDisplay-CondensedBold.ufo
<glyph name="tbar" format="2">
  <advance width="354"/>
  <unicode hex="0167"/>
  <anchor x="205" y="0" name="bottom"/>
  <anchor x="162" y="664" name="top"/>
  <anchor x="165" y="277" name="center"/>
  <anchor x="325" y="664" name="topright"/>
  <outline>
    <contour>
      <point x="12" y="220" type="line"/>
      <point x="318" y="220" type="line"/>
      <point x="318" y="333" type="line"/>
      <point x="12" y="333" type="line"/>
    </contour>
    <component base="t"/>
  </outline>
</glyph>
<glyph name="uni0191" format="2">
  <advance width="566"/>
  <unicode hex="0191"/>
  <anchor x="180" y="0" name="bottom"/>
  <anchor x="372" y="714" name="top"/>
  <anchor x="555" y="714" name="topright"/>
  <outline>
    <contour>
      <point x="192" y="-16" type="curve" smooth="yes"/>
      <point x="316" y="-16"/>
      <point x="386" y="66"/>
      <point x="386" y="193" type="curve" smooth="yes"/>
      <point x="386" y="298" type="line"/>
      <point x="519" y="298" type="line"/>
      <point x="519" y="442" type="line"/>
      <point x="386" y="442" type="line"/>
      <point x="386" y="570" type="line"/>
      <point x="531" y="570" type="line"/>
      <point x="531" y="714" type="line"/>
      <point x="216" y="714" type="line"/>
      <point x="216" y="186" type="line" smooth="yes"/>
      <point x="216" y="158"/>
      <point x="203" y="138"/>
      <point x="178" y="138" type="curve" smooth="yes"/>
      <point x="153" y="138"/>
      <point x="140" y="155"/>
      <point x="140" y="180" type="curve" smooth="yes"/>
      <point x="140" y="192"/>
      <point x="142" y="201"/>
      <point x="145" y="211" type="curve"/>
      <point x="18" y="251" type="line"/>
      <point x="5" y="227"/>
      <point x="-2" y="201"/>
      <point x="-2" y="163" type="curve" smooth="yes"/>
      <point x="-2" y="62"/>
      <point x="68" y="-16"/>
    </contour>
  </outline>
</glyph>
<glyph name="uni023D" format="2">
  <advance width="418"/>
  <unicode hex="023D"/>
  <anchor x="232" y="0" name="bottom"/>
  <anchor x="143" y="714" name="top"/>
  <anchor x="209" y="357" name="center"/>
  <anchor x="281" y="714" name="topright"/>
  <outline>
    <contour>
      <point x="10" y="322" type="line"/>
      <point x="347" y="322" type="line"/>
      <point x="347" y="413" type="line"/>
      <point x="10" y="413" type="line"/>
    </contour>
    <component base="L"/>
  </outline>
</glyph>
<glyph name="uni0247" format="2">
  <advance width="483"/>
  <unicode hex="0247"/>
  <anchor x="255" y="-208" name="bottom"/>
  <anchor x="241" y="760" name="top"/>
  <anchor x="465" y="553" name="topright"/>
  <outline>
    <contour>
      <point x="359" y="760" type="line"/>
      <point x="302" y="760" type="line"/>
      <point x="117" y="-208" type="line"/>
      <point x="174" y="-208" type="line"/>
    </contour>
    <component base="e"/>
  </outline>
</glyph>
<glyph name="uni02FD" format="2">
  <advance width="360"/>
  <unicode hex="02FD"/>
  <outline>
    <contour>
      <point x="320" y="-207" type="line"/>
      <point x="320" y="-43" type="line"/>
      <point x="263" y="-43" type="line"/>
      <point x="263" y="-149" type="line"/>
      <point x="97" y="-149" type="line"/>
      <point x="97" y="-43" type="line"/>
      <point x="40" y="-43" type="line"/>
      <point x="40" y="-207" type="line"/>
    </contour>
  </outline>
</glyph>
<glyph name="overlinecmb" format="2">
  <unicode hex="0305"/>
  <anchor x="0" y="623" name="_top"/>
  <anchor x="0" y="842" name="top"/>
  <outline>
    <contour>
      <point x="-163" y="842" type="line"/>
      <point x="-163" y="724" type="line"/>
      <point x="164" y="724" type="line"/>
      <point x="164" y="842" type="line"/>
    </contour>
  </outline>
</glyph>
<glyph name="strokelongoverlaycomb" format="2">
  <unicode hex="0336"/>
  <anchor x="-1" y="272" name="_center"/>
  <outline>
    <contour>
      <point x="-290" y="213" type="line"/>
      <point x="289" y="213" type="line"/>
      <point x="289" y="331" type="line"/>
      <point x="-290" y="331" type="line"/>
    </contour>
  </outline>
</glyph>
<glyph name="leftanglebelowcomb" format="2">
  <unicode hex="0349"/>
  <anchor x="0" y="0" name="_bottom"/>
  <anchor x="2" y="-239" name="bottom"/>
  <outline>
    <contour>
      <point x="-75" y="-61" type="line"/>
      <point x="-75" y="-119" type="line"/>
      <point x="19" y="-119" type="line"/>
      <point x="19" y="-239" type="line"/>
      <point x="76" y="-239" type="line"/>
      <point x="76" y="-61" type="line"/>
    </contour>
  </outline>
</glyph>
<glyph name="arrowupbelowcomb" format="2">
  <unicode hex="034E"/>
  <anchor x="0" y="24" name="_bottom"/>
  <anchor x="2" y="-240" name="bottom"/>
  <outline>
    <contour>
      <point x="-28" y="-240" type="line"/>
      <point x="27" y="-240" type="line"/>
      <point x="27" y="-121" type="line"/>
      <point x="75" y="-121" type="line"/>
      <point x="0" y="-26" type="line"/>
      <point x="-75" y="-121" type="line"/>
      <point x="-28" y="-121" type="line"/>
    </contour>
  </outline>
</glyph>
<glyph name="Heta" format="2">
  <advance width="359"/>
  <unicode hex="0370"/>
  <anchor x="180" y="0" name="bottom"/>
  <anchor x="180" y="714" name="top"/>
  <outline>
    <contour>
      <point x="340" y="298" type="line"/>
      <point x="340" y="444" type="line"/>
      <point x="227" y="444" type="line"/>
      <point x="227" y="714" type="line"/>
      <point x="56" y="714" type="line"/>
      <point x="56" y="0" type="line"/>
      <point x="227" y="0" type="line"/>
      <point x="227" y="298" type="line"/>
    </contour>
  </outline>
</glyph>
<glyph name="heta" format="2">
  <advance width="307"/>
  <unicode hex="0371"/>
  <anchor x="154" y="0" name="bottom"/>
  <anchor x="154" y="553" name="top"/>
  <outline>
    <contour>
      <point x="210" y="553" type="line"/>
      <point x="47" y="553" type="line"/>
      <point x="47" y="0" type="line"/>
      <point x="210" y="0" type="line"/>
      <point x="210" y="215" type="line"/>
      <point x="290" y="215" type="line"/>
      <point x="290" y="351" type="line"/>
      <point x="210" y="351" type="line"/>
    </contour>
  </outline>
</glyph>
<glyph name="Archaicsampi" format="2">
  <advance width="569"/>
  <unicode hex="0372"/>
  <anchor x="285" y="0" name="bottom"/>
  <anchor x="285" y="714" name="top"/>
  <outline>
    <contour>
      <point x="369" y="0" type="line"/>
      <point x="369" y="567" type="line"/>
      <point x="552" y="567" type="line"/>
      <point x="552" y="714" type="line"/>
      <point x="17" y="714" type="line"/>
      <point x="17" y="567" type="line"/>
      <point x="200" y="567" type="line"/>
      <point x="200" y="0" type="line"/>
    </contour>
    <contour>
      <point x="17" y="714" type="line"/>
      <point x="17" y="389" type="line"/>
      <point x="153" y="389" type="line"/>
      <point x="153" y="714" type="line"/>
    </contour>
    <contour>
      <point x="415" y="714" type="line"/>
      <point x="415" y="389" type="line"/>
      <point x="552" y="389" type="line"/>
      <point x="552" y="714" type="line"/>
    </contour>
  </outline>
</glyph>
<glyph name="uni0375" format="2">
  <advance width="195"/>
  <unicode hex="0375"/>
  <outline>
    <contour>
      <point x="176" y="-72" type="curve"/>
      <point x="176" y="-60" type="line"/>
      <point x="119" y="-60" type="line"/>
      <point x="79" y="-96"/>
      <point x="42" y="-159"/>
      <point x="19" y="-210" type="curve"/>
      <point x="19" y="-220" type="line"/>
      <point x="123" y="-220" type="line"/>
      <point x="135" y="-174"/>
      <point x="154" y="-117"/>
    </contour>
  </outline>
</glyph>
<glyph name="tonos" format="2">
  <advance width="393"/>
  <unicode hex="0384"/>
  <anchor x="193" y="553" name="_top"/>
  <outline>
    <contour>
      <point x="134" y="622" type="curve"/>
      <point x="134" y="606" type="line"/>
      <point x="234" y="606" type="line"/>
      <point x="261" y="655"/>
      <point x="284" y="704"/>
      <point x="303" y="752" type="curve"/>
      <point x="303" y="765" type="line"/>
      <point x="160" y="765" type="line"/>
      <point x="157" y="740"/>
      <point x="141" y="647"/>
    </contour>
  </outline>
</glyph>
<glyph name="dieresistonos" format="2">
  <advance width="413"/>
  <unicode hex="0385"/>
  <anchor x="207" y="553" name="_top"/>
  <outline>
    <contour>
      <point x="296" y="828" type="curve"/>
      <point x="296" y="838" type="line"/>
      <point x="169" y="838" type="line"/>
      <point x="169" y="809"/>
      <point x="165" y="765"/>
      <point x="156" y="707" type="curve"/>
      <point x="156" y="693" type="line"/>
      <point x="233" y="693" type="line"/>
      <point x="263" y="748"/>
      <point x="283" y="793"/>
    </contour>
    <contour>
      <point x="75" y="767" type="curve" smooth="yes"/>
      <point x="34" y="767"/>
      <point x="8" y="739"/>
      <point x="8" y="690" type="curve" smooth="yes"/>
      <point x="8" y="642"/>
      <point x="34" y="614"/>
      <point x="75" y="614" type="curve" smooth="yes"/>
      <point x="117" y="614"/>
      <point x="142" y="644"/>
      <point x="142" y="690" type="curve" smooth="yes"/>
      <point x="142" y="737"/>
      <point x="117" y="767"/>
    </contour>
    <contour>
      <point x="336" y="770" type="curve" smooth="yes"/>
      <point x="295" y="770"/>
      <point x="269" y="741"/>
      <point x="269" y="692" type="curve" smooth="yes"/>
      <point x="269" y="645"/>
      <point x="295" y="616"/>
      <point x="336" y="616" type="curve" smooth="yes"/>
      <point x="379" y="616"/>
      <point x="405" y="647"/>
      <point x="405" y="690" type="curve" smooth="yes"/>
      <point x="405" y="740"/>
      <point x="379" y="770"/>
    </contour>
  </outline>
</glyph>
<glyph name="Delta" format="2">
  <advance width="564"/>
  <unicode hex="0394"/>
  <anchor x="286" y="0" name="bottom"/>
  <anchor x="286" y="714" name="top"/>
  <outline>
    <contour>
      <point x="396" y="714" type="line"/>
      <point x="169" y="714" type="line"/>
      <point x="12" y="97" type="line"/>
      <point x="12" y="0" type="line"/>
      <point x="552" y="0" type="line"/>
      <point x="552" y="96" type="line"/>
    </contour>
    <contour>
      <point x="361" y="146" type="line"/>
      <point x="203" y="146" type="line"/>
      <point x="274" y="497" type="line" smooth="yes"/>
      <point x="278" y="517"/>
      <point x="282" y="540"/>
      <point x="283" y="567" type="curve"/>
      <point x="285" y="538"/>
      <point x="289" y="515"/>
      <point x="293" y="496" type="curve" smooth="yes"/>
    </contour>
  </outline>
</glyph>
<glyph name="Theta" format="2">
  <advance width="621"/>
  <unicode hex="0398"/>
  <anchor x="304" y="0" name="bottom"/>
  <anchor x="304" y="725" name="top"/>
  <anchor x="304" y="357" name="center"/>
  <anchor x="588" y="725" name="topright"/>
  <outline>
    <contour>
      <point x="371" y="430" type="line"/>
      <point x="239" y="430" type="line"/>
      <point x="239" y="295" type="line"/>
      <point x="371" y="295" type="line"/>
    </contour>
    <component base="O"/>
  </outline>
</glyph>
<glyph name="Lambda" format="2">
  <advance width="551"/>
  <unicode hex="039B"/>
  <anchor x="275" y="0" name="bottom"/>
  <anchor x="275" y="714" name="top"/>
  <outline>
    <contour>
      <point x="375" y="714" type="line"/>
      <point x="176" y="714" type="line"/>
      <point x="0" y="0" type="line"/>
      <point x="180" y="0" type="line"/>
      <point x="251" y="354" type="line" smooth="yes"/>
      <point x="262" y="409"/>
      <point x="271" y="463"/>
      <point x="276" y="518" type="curve"/>
      <point x="277" y="486"/>
      <point x="284" y="431"/>
      <point x="300" y="352" type="curve" smooth="yes"/>
      <point x="369" y="0" type="line"/>
      <point x="551" y="0" type="line"/>
    </contour>
  </outline>
</glyph>
<glyph name="Xi" format="2">
  <advance width="450"/>
  <unicode hex="039E"/>
  <anchor x="225" y="0" name="bottom"/>
  <anchor x="225" y="714" name="top"/>
  <outline>
    <contour>
      <point x="26" y="0" type="line"/>
      <point x="424" y="0" type="line"/>
      <point x="424" y="146" type="line"/>
      <point x="26" y="146" type="line"/>
    </contour>
    <contour>
      <point x="71" y="302" type="line"/>
      <point x="379" y="302" type="line"/>
      <point x="379" y="446" type="line"/>
      <point x="71" y="446" type="line"/>
    </contour>
    <contour>
      <point x="41" y="570" type="line"/>
      <point x="409" y="570" type="line"/>
      <point x="409" y="714" type="line"/>
      <point x="41" y="714" type="line"/>
    </contour>
  </outline>
</glyph>
<glyph name="Pi" format="2">
  <advance width="580"/>
  <unicode hex="03A0"/>
  <anchor x="290" y="0" name="bottom"/>
  <anchor x="290" y="714" name="top"/>
  <outline>
    <contour>
      <point x="56" y="0" type="line"/>
      <point x="227" y="0" type="line"/>
      <point x="227" y="567" type="line"/>
      <point x="354" y="567" type="line"/>
      <point x="354" y="0" type="line"/>
      <point x="525" y="0" type="line"/>
      <point x="525" y="714" type="line"/>
      <point x="56" y="714" type="line"/>
    </contour>
  </outline>
</glyph>
<glyph name="Sigma" format="2">
  <advance width="473"/>
  <unicode hex="03A3"/>
  <anchor x="236" y="0" name="bottom"/>
  <anchor x="236" y="714" name="top"/>
  <outline>
    <contour>
      <point x="28" y="0" type="line"/>
      <point x="439" y="0" type="line"/>
      <point x="439" y="146" type="line"/>
      <point x="310" y="146" type="line" smooth="yes"/>
      <point x="282" y="146"/>
      <point x="252" y="145"/>
      <point x="216" y="140" type="curve"/>
      <point x="365" y="376" type="line"/>
      <point x="232" y="575" type="line"/>
      <point x="250" y="571"/>
      <point x="279" y="570"/>
      <point x="318" y="570" type="curve" smooth="yes"/>
      <point x="420" y="570" type="line"/>
      <point x="420" y="714" type="line"/>
      <point x="38" y="714" type="line"/>
      <point x="38" y="580" type="line"/>
      <point x="177" y="375" type="line"/>
      <point x="28" y="139" type="line"/>
    </contour>
  </outline>
</glyph>
<glyph name="Psi" format="2">
  <advance width="761"/>
  <unicode hex="03A8"/>
  <anchor x="381" y="0" name="bottom"/>
  <anchor x="381" y="714" name="top"/>
  <outline>
    <contour>
      <point x="715" y="471" type="curve" smooth="yes"/>
      <point x="715" y="714" type="line"/>
      <point x="545" y="714" type="line"/>
      <point x="545" y="450" type="line" smooth="yes"/>
      <point x="545" y="375"/>
      <point x="519" y="340"/>
      <point x="463" y="340" type="curve"/>
      <point x="463" y="714" type="line"/>
      <point x="298" y="714" type="line"/>
      <point x="298" y="340" type="line"/>
      <point x="239" y="340"/>
      <point x="217" y="366"/>
      <point x="217" y="453" type="curve" smooth="yes"/>
      <point x="217" y="714" type="line"/>
      <point x="46" y="714" type="line"/>
      <point x="46" y="458" type="line" smooth="yes"/>
      <point x="46" y="272"/>
      <point x="121" y="194"/>
      <point x="298" y="194" type="curve"/>
      <point x="298" y="0" type="line"/>
      <point x="463" y="0" type="line"/>
      <point x="463" y="194" type="line"/>
      <point x="635" y="194"/>
      <point x="715" y="278"/>
    </contour>
  </outline>
</glyph>
<glyph name="Omega" format="2">
  <advance width="609"/>
  <unicode hex="03A9"/>
  <anchor x="305" y="0" name="bottom"/>
  <anchor x="305" y="725" name="top"/>
  <anchor x="20" y="714" name="topleft"/>
  <outline>
    <contour>
      <point x="305" y="579" type="curve" smooth="yes"/>
      <point x="368" y="579"/>
      <point x="399" y="520"/>
      <point x="399" y="398" type="curve" smooth="yes"/>
      <point x="399" y="283"/>
      <point x="382" y="209"/>
      <point x="333" y="167" type="curve"/>
      <point x="333" y="0" type="line"/>
      <point x="591" y="0" type="line"/>
      <point x="591" y="146" type="line"/>
      <point x="452" y="146" type="line"/>
      <point x="529" y="198"/>
      <point x="571" y="292"/>
      <point x="571" y="423" type="curve" smooth="yes"/>
      <point x="571" y="622"/>
      <point x="460" y="725"/>
      <point x="305" y="725" type="curve" smooth="yes"/>
      <point x="136" y="725"/>
      <point x="37" y="618"/>
      <point x="37" y="422" type="curve" smooth="yes"/>
      <point x="37" y="292"/>
      <point x="81" y="193"/>
      <point x="154" y="146" type="curve"/>
      <point x="18" y="146" type="line"/>
      <point x="18" y="0" type="line"/>
      <point x="275" y="0" type="line"/>
      <point x="275" y="167" type="line"/>
      <point x="228" y="207"/>
      <point x="210" y="280"/>
      <point x="210" y="396" type="curve" smooth="yes"/>
      <point x="210" y="518"/>
      <point x="239" y="579"/>
    </contour>
  </outline>
</glyph>
<glyph name="beta" format="2">
  <advance width="530"/>
  <unicode hex="03B2"/>
  <anchor x="344" y="0" name="bottom"/>
  <anchor x="265" y="765" name="top"/>
  <anchor x="460" y="765" name="topright"/>
  <outline>
    <contour>
      <point x="266" y="765" type="curve" smooth="yes"/>
      <point x="129" y="765"/>
      <point x="47" y="681"/>
      <point x="47" y="535" type="curve" smooth="yes"/>
      <point x="47" y="-240" type="line"/>
      <point x="210" y="-240" type="line"/>
      <point x="210" y="19" type="line"/>
      <point x="236" y="2"/>
      <point x="274" y="-10"/>
      <point x="323" y="-10" type="curve" smooth="yes"/>
      <point x="433" y="-10"/>
      <point x="502" y="80"/>
      <point x="502" y="217" type="curve" smooth="yes"/>
      <point x="502" y="324"/>
      <point x="462" y="386"/>
      <point x="369" y="402" type="curve"/>
      <point x="369" y="406" type="line"/>
      <point x="434" y="420"/>
      <point x="470" y="476"/>
      <point x="470" y="572" type="curve" smooth="yes"/>
      <point x="470" y="693"/>
      <point x="394" y="765"/>
    </contour>
    <contour>
      <point x="261" y="630" type="curve" smooth="yes"/>
      <point x="289" y="630"/>
      <point x="307" y="600"/>
      <point x="307" y="546" type="curve" smooth="yes"/>
      <point x="307" y="492"/>
      <point x="292" y="458"/>
      <point x="265" y="458" type="curve" smooth="yes"/>
      <point x="252" y="458" type="line"/>
      <point x="252" y="322" type="line"/>
      <point x="271" y="322" type="line" smooth="yes"/>
      <point x="313" y="322"/>
      <point x="337" y="287"/>
      <point x="337" y="232" type="curve" smooth="yes"/>
      <point x="337" y="164"/>
      <point x="312" y="130"/>
      <point x="272" y="130" type="curve" smooth="yes"/>
      <point x="253" y="130"/>
      <point x="223" y="143"/>
      <point x="210" y="157" type="curve"/>
      <point x="210" y="521" type="line" smooth="yes"/>
      <point x="210" y="594"/>
      <point x="225" y="630"/>
    </contour>
  </outline>
</glyph>
<glyph name="gamma" format="2">
  <advance width="489"/>
  <unicode hex="03B3"/>
  <anchor x="245" y="-240" name="bottom"/>
  <anchor x="245" y="553" name="top"/>
  <anchor x="479" y="553" name="topright"/>
  <outline>
    <contour>
      <point x="486" y="553" type="line"/>
      <point x="318" y="553" type="line"/>
      <point x="281" y="383" type="line" smooth="yes"/>
      <point x="266" y="315"/>
      <point x="253" y="259"/>
      <point x="248" y="212" type="curve"/>
      <point x="245" y="212" type="line"/>
      <point x="240" y="273"/>
      <point x="228" y="333"/>
      <point x="214" y="392" type="curve" smooth="yes"/>
      <point x="177" y="553" type="line"/>
      <point x="2" y="553" type="line"/>
      <point x="160" y="6" type="line"/>
      <point x="143" y="-61"/>
      <point x="123" y="-183"/>
      <point x="123" y="-240" type="curve"/>
      <point x="298" y="-240" type="line"/>
      <point x="298" y="-166"/>
      <point x="313" y="-65"/>
      <point x="333" y="7" type="curve" smooth="yes"/>
    </contour>
  </outline>
</glyph>
<glyph name="delta" format="2">
  <advance width="495"/>
  <unicode hex="03B4"/>
  <anchor x="248" y="0" name="bottom"/>
  <anchor x="248" y="769" name="top"/>
  <outline>
    <contour>
      <point x="272" y="769" type="curve" smooth="yes"/>
      <point x="147" y="769"/>
      <point x="77" y="705"/>
      <point x="77" y="595" type="curve" smooth="yes"/>
      <point x="77" y="534"/>
      <point x="106" y="481"/>
      <point x="164" y="439" type="curve"/>
      <point x="73" y="400"/>
      <point x="28" y="325"/>
      <point x="28" y="214" type="curve" smooth="yes"/>
      <point x="28" y="71"/>
      <point x="101" y="-10"/>
      <point x="244" y="-10" type="curve" smooth="yes"/>
      <point x="384" y="-10"/>
      <point x="465" y="83"/>
      <point x="465" y="223" type="curve" smooth="yes"/>
      <point x="465" y="358"/>
      <point x="417" y="437"/>
      <point x="315" y="511" type="curve" smooth="yes"/>
      <point x="240" y="566"/>
      <point x="236" y="577"/>
      <point x="236" y="601" type="curve" smooth="yes"/>
      <point x="236" y="623"/>
      <point x="250" y="634"/>
      <point x="280" y="634" type="curve" smooth="yes"/>
      <point x="314" y="634"/>
      <point x="358" y="617"/>
      <point x="411" y="582" type="curve"/>
      <point x="466" y="713" type="line"/>
      <point x="405" y="750"/>
      <point x="341" y="769"/>
    </contour>
    <contour>
      <point x="246" y="366" type="curve"/>
      <point x="282" y="336"/>
      <point x="301" y="290"/>
      <point x="301" y="227" type="curve" smooth="yes"/>
      <point x="301" y="161"/>
      <point x="279" y="125"/>
      <point x="245" y="125" type="curve" smooth="yes"/>
      <point x="213" y="125"/>
      <point x="193" y="157"/>
      <point x="193" y="225" type="curve" smooth="yes"/>
      <point x="193" y="292"/>
      <point x="217" y="350"/>
    </contour>
  </outline>
</glyph>
<glyph name="zeta" format="2">
  <advance width="422"/>
  <unicode hex="03B6"/>
  <anchor x="211" y="-178" name="bottom"/>
  <anchor x="211" y="760" name="top"/>
  <outline>
    <contour>
      <point x="405" y="-9" type="curve" smooth="yes"/>
      <point x="405" y="73"/>
      <point x="371" y="119"/>
      <point x="297" y="139" type="curve" smooth="yes"/>
      <point x="213" y="162"/>
      <point x="195" y="183"/>
      <point x="195" y="239" type="curve" smooth="yes"/>
      <point x="195" y="374"/>
      <point x="254" y="498"/>
      <point x="396" y="653" type="curve"/>
      <point x="396" y="760" type="line"/>
      <point x="50" y="760" type="line"/>
      <point x="50" y="625" type="line"/>
      <point x="167" y="625" type="line" smooth="yes"/>
      <point x="189" y="625"/>
      <point x="209" y="628"/>
      <point x="228" y="635" type="curve"/>
      <point x="91" y="495"/>
      <point x="30" y="369"/>
      <point x="30" y="230" type="curve" smooth="yes"/>
      <point x="30" y="93"/>
      <point x="68" y="42"/>
      <point x="161" y="12" type="curve" smooth="yes"/>
      <point x="244" y="-15"/>
      <point x="246" y="-26"/>
      <point x="246" y="-50" type="curve" smooth="yes"/>
      <point x="246" y="-71"/>
      <point x="221" y="-134"/>
      <point x="192" y="-178" type="curve"/>
      <point x="355" y="-178" type="line"/>
      <point x="390" y="-118"/>
      <point x="405" y="-62"/>
    </contour>
  </outline>
</glyph>
<glyph name="eta" format="2">
  <advance width="517"/>
  <unicode hex="03B7"/>
  <anchor x="258" y="-240" name="bottom"/>
  <anchor x="279" y="553" name="top"/>
  <outline>
    <contour>
      <point x="322" y="563" type="curve" smooth="yes"/>
      <point x="264" y="563"/>
      <point x="226" y="537"/>
      <point x="201" y="485" type="curve"/>
      <point x="193" y="485" type="line"/>
      <point x="174" y="553" type="line"/>
      <point x="47" y="553" type="line"/>
      <point x="47" y="0" type="line"/>
      <point x="210" y="0" type="line"/>
      <point x="210" y="253" type="line" smooth="yes"/>
      <point x="210" y="378"/>
      <point x="223" y="419"/>
      <point x="268" y="419" type="curve" smooth="yes"/>
      <point x="299" y="419"/>
      <point x="308" y="381"/>
      <point x="308" y="308" type="curve" smooth="yes"/>
      <point x="308" y="-240" type="line"/>
      <point x="471" y="-240" type="line"/>
      <point x="471" y="360" type="line" smooth="yes"/>
      <point x="471" y="489"/>
      <point x="416" y="563"/>
    </contour>
  </outline>
</glyph>
<glyph name="theta" format="2">
  <advance width="511"/>
  <unicode hex="03B8"/>
  <anchor x="256" y="0" name="bottom"/>
  <anchor x="256" y="771" name="top"/>
  <anchor x="453" y="771" name="topright"/>
  <outline>
    <contour>
      <point x="481" y="381" type="curve" smooth="yes"/>
      <point x="481" y="646"/>
      <point x="405" y="771"/>
      <point x="254" y="771" type="curve" smooth="yes"/>
      <point x="102" y="771"/>
      <point x="30" y="646"/>
      <point x="30" y="381" type="curve" smooth="yes"/>
      <point x="30" y="113"/>
      <point x="103" y="-10"/>
      <point x="254" y="-10" type="curve" smooth="yes"/>
      <point x="406" y="-10"/>
      <point x="481" y="117"/>
    </contour>
    <contour>
      <point x="254" y="119" type="curve" smooth="yes"/>
      <point x="214" y="119"/>
      <point x="196" y="185"/>
      <point x="195" y="315" type="curve"/>
      <point x="316" y="315" type="line"/>
      <point x="314" y="183"/>
      <point x="296" y="119"/>
    </contour>
    <contour>
      <point x="256" y="642" type="curve" smooth="yes"/>
      <point x="295" y="642"/>
      <point x="313" y="580"/>
      <point x="317" y="444" type="curve"/>
      <point x="197" y="444" type="line"/>
      <point x="198" y="580"/>
      <point x="216" y="642"/>
    </contour>
  </outline>
</glyph>
<glyph name="lambda" format="2">
  <advance width="524"/>
  <unicode hex="03BB"/>
  <anchor x="262" y="0" name="bottom"/>
  <anchor x="262" y="768" name="top"/>
  <outline>
    <contour>
      <point x="2" y="0" type="line"/>
      <point x="172" y="0" type="line"/>
      <point x="235" y="240" type="line" smooth="yes"/>
      <point x="239" y="256"/>
      <point x="243" y="277"/>
      <point x="244" y="301" type="curve"/>
      <point x="247" y="301" type="line"/>
      <point x="249" y="278"/>
      <point x="250" y="259"/>
      <point x="254" y="242" type="curve" smooth="yes"/>
      <point x="274" y="164" type="line" smooth="yes"/>
      <point x="309" y="31"/>
      <point x="353" y="-10"/>
      <point x="447" y="-10" type="curve" smooth="yes"/>
      <point x="472" y="-10"/>
      <point x="495" y="-7"/>
      <point x="514" y="-1" type="curve"/>
      <point x="514" y="140" type="line"/>
      <point x="503" y="136"/>
      <point x="491" y="134"/>
      <point x="478" y="134" type="curve" smooth="yes"/>
      <point x="453" y="134"/>
      <point x="437" y="144"/>
      <point x="426" y="183" type="curve" smooth="yes"/>
      <point x="321" y="563" type="line" smooth="yes"/>
      <point x="277" y="721"/>
      <point x="222" y="768"/>
      <point x="122" y="768" type="curve" smooth="yes"/>
      <point x="96" y="768"/>
      <point x="73" y="765"/>
      <point x="54" y="760" type="curve"/>
      <point x="54" y="627" type="line"/>
      <point x="66" y="631"/>
      <point x="79" y="633"/>
      <point x="93" y="633" type="curve" smooth="yes"/>
      <point x="135" y="633"/>
      <point x="148" y="597"/>
      <point x="155" y="569" type="curve" smooth="yes"/>
      <point x="167" y="520" type="line"/>
    </contour>
  </outline>
</glyph>
<glyph name="nu" format="2">
  <advance width="497"/>
  <unicode hex="03BD"/>
  <anchor x="249" y="0" name="bottom"/>
  <anchor x="249" y="553" name="top"/>
  <outline>
    <contour>
      <point x="1" y="553" type="line"/>
      <point x="137" y="0" type="line"/>
      <point x="290" y="0" type="line"/>
      <point x="417" y="170"/>
      <point x="469" y="336"/>
      <point x="469" y="553" type="curve"/>
      <point x="305" y="553" type="line"/>
      <point x="305" y="410"/>
      <point x="293" y="290"/>
      <point x="243" y="172" type="curve"/>
      <point x="241" y="172" type="line"/>
      <point x="239" y="195"/>
      <point x="235" y="218"/>
      <point x="231" y="241" type="curve" smooth="yes"/>
      <point x="171" y="553" type="line"/>
    </contour>
  </outline>
</glyph>
<glyph name="xi" format="2">
  <advance width="420"/>
  <unicode hex="03BE"/>
  <anchor x="210" y="-178" name="bottom"/>
  <anchor x="220" y="760" name="top"/>
  <outline>
    <contour>
      <point x="30" y="208" type="curve" smooth="yes"/>
      <point x="30" y="105"/>
      <point x="73" y="38"/>
      <point x="174" y="8" type="curve" smooth="yes"/>
      <point x="231" y="-9"/>
      <point x="240" y="-21"/>
      <point x="240" y="-50" type="curve" smooth="yes"/>
      <point x="240" y="-71"/>
      <point x="214" y="-134"/>
      <point x="184" y="-178" type="curve"/>
      <point x="349" y="-178" type="line"/>
      <point x="383" y="-121"/>
      <point x="399" y="-65"/>
      <point x="399" y="-12" type="curve" smooth="yes"/>
      <point x="399" y="66"/>
      <point x="363" y="116"/>
      <point x="293" y="137" type="curve" smooth="yes"/>
      <point x="217" y="160"/>
      <point x="195" y="176"/>
      <point x="195" y="231" type="curve" smooth="yes"/>
      <point x="195" y="297"/>
      <point x="231" y="325"/>
      <point x="301" y="325" type="curve" smooth="yes"/>
      <point x="352" y="325" type="line"/>
      <point x="352" y="460" type="line"/>
      <point x="299" y="460" type="line" smooth="yes"/>
      <point x="242" y="460"/>
      <point x="215" y="481"/>
      <point x="215" y="529" type="curve" smooth="yes"/>
      <point x="215" y="593"/>
      <point x="251" y="625"/>
      <point x="325" y="625" type="curve" smooth="yes"/>
      <point x="380" y="625" type="line"/>
      <point x="380" y="760" type="line"/>
      <point x="42" y="760" type="line"/>
      <point x="42" y="625" type="line"/>
      <point x="71" y="625" type="line" smooth="yes"/>
      <point x="92" y="625"/>
      <point x="109" y="626"/>
      <point x="139" y="630" type="curve"/>
      <point x="92" y="617"/>
      <point x="53" y="570"/>
      <point x="53" y="515" type="curve" smooth="yes"/>
      <point x="53" y="453"/>
      <point x="82" y="414"/>
      <point x="138" y="399" type="curve"/>
      <point x="138" y="395" type="line"/>
      <point x="61" y="358"/>
      <point x="30" y="300"/>
    </contour>
  </outline>
</glyph>
<glyph name="pi" format="2">
  <advance width="605"/>
  <unicode hex="03C0"/>
  <anchor x="303" y="0" name="bottom"/>
  <anchor x="303" y="553" name="top"/>
  <outline>
    <contour>
      <point x="527" y="131" type="curve" smooth="yes"/>
      <point x="511" y="131"/>
      <point x="500" y="145"/>
      <point x="500" y="176" type="curve" smooth="yes"/>
      <point x="500" y="418" type="line"/>
      <point x="584" y="418" type="line"/>
      <point x="584" y="553" type="line"/>
      <point x="79" y="553" type="line"/>
      <point x="5" y="492" type="line"/>
      <point x="5" y="418" type="line"/>
      <point x="88" y="418" type="line"/>
      <point x="88" y="0" type="line"/>
      <point x="251" y="0" type="line"/>
      <point x="251" y="418" type="line"/>
      <point x="338" y="418" type="line"/>
      <point x="338" y="172" type="line" smooth="yes"/>
      <point x="338" y="49"/>
      <point x="380" y="-10"/>
      <point x="472" y="-10" type="curve" smooth="yes"/>
      <point x="510" y="-10"/>
      <point x="555" y="1"/>
      <point x="585" y="24" type="curve"/>
      <point x="585" y="148" type="line"/>
      <point x="568" y="138"/>
      <point x="544" y="131"/>
    </contour>
  </outline>
</glyph>
<glyph name="rho" format="2">
  <advance width="511"/>
  <unicode hex="03C1"/>
  <anchor x="256" y="-240" name="bottom"/>
  <anchor x="256" y="553" name="top"/>
  <outline>
    <contour>
      <point x="480" y="276" type="curve" smooth="yes"/>
      <point x="480" y="466"/>
      <point x="403" y="563"/>
      <point x="264" y="563" type="curve" smooth="yes"/>
      <point x="99" y="563"/>
      <point x="45" y="440"/>
      <point x="45" y="273" type="curve" smooth="yes"/>
      <point x="45" y="-240" type="line"/>
      <point x="208" y="-240" type="line"/>
      <point x="208" y="-107" type="line" smooth="yes"/>
      <point x="208" y="-72"/>
      <point x="207" y="-24"/>
      <point x="202" y="27" type="curve"/>
      <point x="210" y="27" type="line"/>
      <point x="234" y="7"/>
      <point x="263" y="-10"/>
      <point x="301" y="-10" type="curve" smooth="yes"/>
      <point x="437" y="-10"/>
      <point x="480" y="121"/>
    </contour>
    <contour>
      <point x="263" y="428" type="curve" smooth="yes"/>
      <point x="298" y="428"/>
      <point x="315" y="393"/>
      <point x="315" y="276" type="curve" smooth="yes"/>
      <point x="315" y="160"/>
      <point x="296" y="125"/>
      <point x="259" y="125" type="curve" smooth="yes"/>
      <point x="241" y="125"/>
      <point x="221" y="134"/>
      <point x="208" y="148" type="curve"/>
      <point x="208" y="312" type="line" smooth="yes"/>
      <point x="208" y="396"/>
      <point x="226" y="428"/>
    </contour>
  </outline>
</glyph>
<glyph name="sigma1" format="2">
  <advance width="432"/>
  <unicode hex="03C2"/>
  <anchor x="216" y="-178" name="bottom"/>
  <anchor x="244" y="553" name="top"/>
  <outline>
    <contour>
      <point x="258" y="563" type="curve" smooth="yes"/>
      <point x="109" y="563"/>
      <point x="30" y="463"/>
      <point x="30" y="257" type="curve" smooth="yes"/>
      <point x="30" y="93"/>
      <point x="74" y="51"/>
      <point x="174" y="15" type="curve" smooth="yes"/>
      <point x="233" y="-6"/>
      <point x="244" y="-21"/>
      <point x="244" y="-50" type="curve" smooth="yes"/>
      <point x="244" y="-73"/>
      <point x="220" y="-134"/>
      <point x="190" y="-178" type="curve"/>
      <point x="353" y="-178" type="line"/>
      <point x="388" y="-121"/>
      <point x="404" y="-65"/>
      <point x="404" y="-12" type="curve" smooth="yes"/>
      <point x="404" y="65"/>
      <point x="368" y="115"/>
      <point x="293" y="138" type="curve" smooth="yes"/>
      <point x="217" y="161"/>
      <point x="195" y="172"/>
      <point x="195" y="265" type="curve" smooth="yes"/>
      <point x="195" y="374"/>
      <point x="218" y="425"/>
      <point x="264" y="425" type="curve" smooth="yes"/>
      <point x="307" y="425"/>
      <point x="335" y="414"/>
      <point x="365" y="392" type="curve"/>
      <point x="408" y="521" type="line"/>
      <point x="357" y="549"/>
      <point x="308" y="563"/>
    </contour>
  </outline>
</glyph>
<glyph name="sigma" format="2">
  <advance width="544"/>
  <unicode hex="03C3"/>
  <anchor x="272" y="0" name="bottom"/>
  <anchor x="272" y="553" name="top"/>
  <outline>
    <contour>
      <point x="487" y="233" type="curve" smooth="yes"/>
      <point x="487" y="311"/>
      <point x="465" y="373"/>
      <point x="420" y="418" type="curve"/>
      <point x="522" y="418" type="line"/>
      <point x="522" y="553" type="line"/>
      <point x="316" y="553" type="line" smooth="yes"/>
      <point x="122" y="553"/>
      <point x="30" y="459"/>
      <point x="30" y="256" type="curve" smooth="yes"/>
      <point x="30" y="92"/>
      <point x="108" y="-10"/>
      <point x="258" y="-10" type="curve" smooth="yes"/>
      <point x="398" y="-10"/>
      <point x="487" y="87"/>
    </contour>
    <contour>
      <point x="195" y="257" type="curve" smooth="yes"/>
      <point x="195" y="367"/>
      <point x="219" y="418"/>
      <point x="278" y="418" type="curve" smooth="yes"/>
      <point x="285" y="418" type="line"/>
      <point x="311" y="367"/>
      <point x="323" y="318"/>
      <point x="323" y="262" type="curve" smooth="yes"/>
      <point x="323" y="171"/>
      <point x="301" y="125"/>
      <point x="260" y="125" type="curve" smooth="yes"/>
      <point x="219" y="125"/>
      <point x="195" y="164"/>
    </contour>
  </outline>
</glyph>
<glyph name="tau" format="2">
  <advance width="410"/>
  <unicode hex="03C4"/>
  <anchor x="205" y="0" name="bottom"/>
  <anchor x="205" y="553" name="top"/>
  <outline>
    <contour>
      <point x="389" y="553" type="line"/>
      <point x="79" y="553" type="line"/>
      <point x="5" y="492" type="line"/>
      <point x="5" y="418" type="line"/>
      <point x="104" y="418" type="line"/>
      <point x="104" y="177" type="line" smooth="yes"/>
      <point x="104" y="47"/>
      <point x="149" y="-10"/>
      <point x="249" y="-10" type="curve" smooth="yes"/>
      <point x="298" y="-10"/>
      <point x="335" y="0"/>
      <point x="369" y="19" type="curve"/>
      <point x="369" y="147" type="line"/>
      <point x="345" y="136"/>
      <point x="324" y="130"/>
      <point x="304" y="130" type="curve" smooth="yes"/>
      <point x="279" y="130"/>
      <point x="266" y="148"/>
      <point x="266" y="184" type="curve" smooth="yes"/>
      <point x="266" y="418" type="line"/>
      <point x="389" y="418" type="line"/>
    </contour>
  </outline>
</glyph>
<glyph name="upsilon" format="2">
  <advance width="524"/>
  <unicode hex="03C5"/>
  <anchor x="261" y="0" name="bottom"/>
  <anchor x="255" y="553" name="top"/>
  <outline>
    <contour>
      <point x="255" y="-8" type="curve" smooth="yes"/>
      <point x="401" y="-8"/>
      <point x="481" y="93"/>
      <point x="481" y="298" type="curve" smooth="yes"/>
      <point x="481" y="383"/>
      <point x="474" y="448"/>
      <point x="452" y="553" type="curve"/>
      <point x="290" y="553" type="line"/>
      <point x="308" y="458"/>
      <point x="318" y="373"/>
      <point x="318" y="297" type="curve" smooth="yes"/>
      <point x="318" y="178"/>
      <point x="301" y="134"/>
      <point x="260" y="134" type="curve" smooth="yes"/>
      <point x="224" y="134"/>
      <point x="209" y="161"/>
      <point x="209" y="235" type="curve" smooth="yes"/>
      <point x="209" y="553" type="line"/>
      <point x="46" y="553" type="line"/>
      <point x="46" y="253" type="line" smooth="yes"/>
      <point x="46" y="74"/>
      <point x="109" y="-8"/>
    </contour>
  </outline>
</glyph>
<glyph name="phi" format="2">
  <advance width="680"/>
  <unicode hex="03C6"/>
  <anchor x="340" y="-240" name="bottom"/>
  <anchor x="340" y="565" name="top"/>
  <outline>
    <contour>
      <point x="245" y="494" type="curve"/>
      <point x="121" y="565" type="line"/>
      <point x="59" y="475"/>
      <point x="30" y="380"/>
      <point x="30" y="271" type="curve" smooth="yes"/>
      <point x="30" y="110"/>
      <point x="112" y="9"/>
      <point x="257" y="-4" type="curve"/>
      <point x="257" y="-240" type="line"/>
      <point x="416" y="-240" type="line"/>
      <point x="416" y="-4" type="line"/>
      <point x="563" y="13"/>
      <point x="650" y="123"/>
      <point x="650" y="295" type="curve" smooth="yes"/>
      <point x="650" y="461"/>
      <point x="570" y="560"/>
      <point x="443" y="560" type="curve" smooth="yes"/>
      <point x="315" y="560"/>
      <point x="257" y="488"/>
      <point x="257" y="336" type="curve" smooth="yes"/>
      <point x="257" y="131" type="line"/>
      <point x="217" y="148"/>
      <point x="195" y="190"/>
      <point x="195" y="268" type="curve" smooth="yes"/>
      <point x="195" y="344"/>
      <point x="215" y="432"/>
    </contour>
    <contour>
      <point x="443" y="425" type="curve" smooth="yes"/>
      <point x="470" y="425"/>
      <point x="486" y="382"/>
      <point x="486" y="294" type="curve" smooth="yes"/>
      <point x="486" y="194"/>
      <point x="459" y="137"/>
      <point x="415" y="131" type="curve"/>
      <point x="415" y="347" type="line" smooth="yes"/>
      <point x="415" y="402"/>
      <point x="422" y="425"/>
    </contour>
  </outline>
</glyph>
<glyph name="chi" format="2">
  <advance width="497"/>
  <unicode hex="03C7"/>
  <anchor x="249" y="-240" name="bottom"/>
  <anchor x="249" y="553" name="top"/>
  <anchor x="478" y="553" name="topright"/>
  <outline>
    <contour>
      <point x="94" y="563" type="curve" smooth="yes"/>
      <point x="63" y="563"/>
      <point x="33" y="559"/>
      <point x="14" y="554" type="curve"/>
      <point x="14" y="421" type="line"/>
      <point x="25" y="425"/>
      <point x="41" y="428"/>
      <point x="54" y="428" type="curve" smooth="yes"/>
      <point x="78" y="428"/>
      <point x="95" y="417"/>
      <point x="112" y="360" type="curve" smooth="yes"/>
      <point x="165" y="183" type="line"/>
      <point x="-21" y="-240" type="line"/>
      <point x="151" y="-240" type="line"/>
      <point x="223" y="-21" type="line"/>
      <point x="235" y="-67" type="line" smooth="yes"/>
      <point x="270" y="-202"/>
      <point x="313" y="-240"/>
      <point x="407" y="-240" type="curve" smooth="yes"/>
      <point x="446" y="-240"/>
      <point x="470" y="-237"/>
      <point x="491" y="-232" type="curve"/>
      <point x="491" y="-99" type="line"/>
      <point x="477" y="-103"/>
      <point x="465" y="-105"/>
      <point x="451" y="-105" type="curve" smooth="yes"/>
      <point x="414" y="-105"/>
      <point x="403" y="-94"/>
      <point x="388" y="-42" type="curve" smooth="yes"/>
      <point x="328" y="169" type="line"/>
      <point x="493" y="553" type="line"/>
      <point x="328" y="553" type="line"/>
      <point x="267" y="372" type="line"/>
      <point x="258" y="409" type="line" smooth="yes"/>
      <point x="232" y="522"/>
      <point x="188" y="563"/>
    </contour>
  </outline>
</glyph>
<glyph name="psi" format="2">
  <advance width="731"/>
  <unicode hex="03C8"/>
  <anchor x="365" y="-240" name="bottom"/>
  <anchor x="365" y="759" name="top"/>
  <outline>
    <contour>
      <point x="444" y="134" type="curve"/>
      <point x="444" y="759" type="line"/>
      <point x="285" y="759" type="line"/>
      <point x="285" y="134" type="line"/>
      <point x="226" y="140"/>
      <point x="210" y="176"/>
      <point x="210" y="259" type="curve" smooth="yes"/>
      <point x="210" y="553" type="line"/>
      <point x="47" y="553" type="line"/>
      <point x="47" y="252" type="line" smooth="yes"/>
      <point x="47" y="69"/>
      <point x="128" y="-2"/>
      <point x="285" y="-8" type="curve"/>
      <point x="285" y="-240" type="line"/>
      <point x="444" y="-240" type="line"/>
      <point x="444" y="-8" type="line"/>
      <point x="605" y="2"/>
      <point x="688" y="102"/>
      <point x="688" y="280" type="curve" smooth="yes"/>
      <point x="688" y="365"/>
      <point x="680" y="440"/>
      <point x="651" y="553" type="curve"/>
      <point x="492" y="553" type="line"/>
      <point x="515" y="458"/>
      <point x="526" y="368"/>
      <point x="526" y="283" type="curve" smooth="yes"/>
      <point x="526" y="179"/>
      <point x="507" y="143"/>
    </contour>
  </outline>
</glyph>
<glyph name="omega" format="2">
  <advance width="750"/>
  <unicode hex="03C9"/>
  <anchor x="375" y="0" name="bottom"/>
  <anchor x="373" y="553" name="top"/>
  <outline>
    <contour>
      <point x="664" y="553" type="curve"/>
      <point x="499" y="553" type="line"/>
      <point x="530" y="469"/>
      <point x="544" y="368"/>
      <point x="544" y="274" type="curve" smooth="yes"/>
      <point x="544" y="181"/>
      <point x="529" y="138"/>
      <point x="496" y="138" type="curve" smooth="yes"/>
      <point x="460" y="138"/>
      <point x="455" y="159"/>
      <point x="455" y="257" type="curve" smooth="yes"/>
      <point x="455" y="391" type="line"/>
      <point x="296" y="391" type="line"/>
      <point x="296" y="257" type="line" smooth="yes"/>
      <point x="296" y="165"/>
      <point x="287" y="138"/>
      <point x="254" y="138" type="curve" smooth="yes"/>
      <point x="218" y="138"/>
      <point x="206" y="179"/>
      <point x="206" y="277" type="curve" smooth="yes"/>
      <point x="206" y="380"/>
      <point x="221" y="472"/>
      <point x="250" y="553" type="curve"/>
      <point x="86" y="553" type="line"/>
      <point x="53" y="443"/>
      <point x="43" y="374"/>
      <point x="43" y="269" type="curve" smooth="yes"/>
      <point x="43" y="98"/>
      <point x="115" y="-10"/>
      <point x="237" y="-10" type="curve" smooth="yes"/>
      <point x="311" y="-10"/>
      <point x="352" y="22"/>
      <point x="373" y="95" type="curve"/>
      <point x="377" y="95" type="line"/>
      <point x="396" y="22"/>
      <point x="442" y="-10"/>
      <point x="512" y="-10" type="curve" smooth="yes"/>
      <point x="633" y="-10"/>
      <point x="707" y="95"/>
      <point x="707" y="269" type="curve" smooth="yes"/>
      <point x="707" y="370"/>
      <point x="696" y="449"/>
    </contour>
  </outline>
</glyph>
<glyph name="uni03D2" format="2">
  <advance width="523"/>
  <unicode hex="03D2"/>
  <anchor x="262" y="714" name="top"/>
  <outline>
    <contour>
      <point x="260" y="465" type="curve"/>
      <point x="183" y="714" type="line"/>
      <point x="0" y="714" type="line"/>
      <point x="174" y="268" type="line"/>
      <point x="174" y="0" type="line"/>
      <point x="345" y="0" type="line"/>
      <point x="345" y="275" type="line"/>
      <point x="365" y="345"/>
      <point x="392" y="420"/>
      <point x="418" y="476" type="curve" smooth="yes"/>
      <point x="450" y="545"/>
      <point x="470" y="574"/>
      <point x="495" y="574" type="curve" smooth="yes"/>
      <point x="503" y="574"/>
      <point x="513" y="571"/>
      <point x="523" y="567" type="curve"/>
      <point x="523" y="703" type="line"/>
      <point x="501" y="714"/>
      <point x="474" y="720"/>
      <point x="442" y="720" type="curve" smooth="yes"/>
      <point x="369" y="720"/>
      <point x="340" y="684"/>
      <point x="311" y="611" type="curve" smooth="yes"/>
      <point x="285" y="546"/>
      <point x="270" y="505"/>
    </contour>
  </outline>
</glyph>
<glyph name="uni03D7" format="2">
  <advance width="589"/>
  <unicode hex="03D7"/>
  <outline>
    <contour>
      <point x="425" y="-240" type="curve" smooth="yes"/>
      <point x="506" y="-240"/>
      <point x="574" y="-187"/>
      <point x="574" y="-57" type="curve" smooth="yes"/>
      <point x="574" y="128" type="line"/>
      <point x="567" y="124"/>
      <point x="553" y="120"/>
      <point x="531" y="120" type="curve" smooth="yes"/>
      <point x="490" y="120"/>
      <point x="477" y="143"/>
      <point x="477" y="219" type="curve" smooth="yes"/>
      <point x="477" y="317"/>
      <point x="502" y="419"/>
      <point x="566" y="550" type="curve"/>
      <point x="394" y="550" type="line"/>
      <point x="242" y="288" type="line"/>
      <point x="244" y="307"/>
      <point x="245" y="339"/>
      <point x="245" y="391" type="curve" smooth="yes"/>
      <point x="245" y="524"/>
      <point x="179" y="563"/>
      <point x="97" y="563" type="curve" smooth="yes"/>
      <point x="55" y="563"/>
      <point x="19" y="555"/>
      <point x="4" y="547" type="curve"/>
      <point x="22" y="421" type="line"/>
      <point x="28" y="425"/>
      <point x="34" y="428"/>
      <point x="48" y="428" type="curve" smooth="yes"/>
      <point x="79" y="428"/>
      <point x="91" y="387"/>
      <point x="91" y="314" type="curve" smooth="yes"/>
      <point x="91" y="188"/>
      <point x="57" y="75"/>
      <point x="27" y="0" type="curve"/>
      <point x="194" y="0" type="line"/>
      <point x="326" y="231" type="line"/>
      <point x="324" y="205"/>
      <point x="322" y="179"/>
      <point x="322" y="142" type="curve" smooth="yes"/>
      <point x="322" y="46"/>
      <point x="356" y="7"/>
      <point x="412" y="-3" type="curve"/>
      <point x="412" y="-54" type="line" smooth="yes"/>
      <point x="412" y="-105"/>
      <point x="399" y="-118"/>
      <point x="371" y="-118" type="curve" smooth="yes"/>
      <point x="361" y="-118"/>
      <point x="348" y="-115"/>
      <point x="337" y="-109" type="curve"/>
      <point x="337" y="-227" type="line"/>
      <point x="361" y="-236"/>
      <point x="395" y="-240"/>
    </contour>
  </outline>
</glyph>
<glyph name="uni03DB" format="2">
  <advance width="432"/>
  <unicode hex="03DB"/>
  <anchor x="216" y="-220" name="bottom"/>
  <anchor x="216" y="553" name="top"/>
  <outline>
    <contour>
      <point x="220" y="-220" type="curve" smooth="yes"/>
      <point x="336" y="-220"/>
      <point x="404" y="-154"/>
      <point x="404" y="-25" type="curve" smooth="yes"/>
      <point x="404" y="62"/>
      <point x="367" y="115"/>
      <point x="293" y="138" type="curve" smooth="yes"/>
      <point x="217" y="162"/>
      <point x="195" y="172"/>
      <point x="195" y="265" type="curve" smooth="yes"/>
      <point x="195" y="374"/>
      <point x="218" y="425"/>
      <point x="264" y="425" type="curve" smooth="yes"/>
      <point x="307" y="425"/>
      <point x="335" y="414"/>
      <point x="365" y="392" type="curve"/>
      <point x="408" y="521" type="line"/>
      <point x="357" y="549"/>
      <point x="308" y="563"/>
      <point x="258" y="563" type="curve" smooth="yes"/>
      <point x="109" y="563"/>
      <point x="30" y="463"/>
      <point x="30" y="257" type="curve" smooth="yes"/>
      <point x="30" y="93"/>
      <point x="73" y="49"/>
      <point x="174" y="16" type="curve" smooth="yes"/>
      <point x="238" y="-5"/>
      <point x="244" y="-20"/>
      <point x="244" y="-49" type="curve" smooth="yes"/>
      <point x="244" y="-68"/>
      <point x="230" y="-81"/>
      <point x="202" y="-81" type="curve" smooth="yes"/>
      <point x="174" y="-81"/>
      <point x="147" y="-74"/>
      <point x="120" y="-64" type="curve"/>
      <point x="120" y="-209" type="line"/>
      <point x="153" y="-217"/>
      <point x="186" y="-220"/>
    </contour>
  </outline>
</glyph>
<glyph name="uni03DC" format="2">
  <advance width="434"/>
  <unicode hex="03DC"/>
  <anchor x="217" y="0" name="bottom"/>
  <anchor x="217" y="714" name="top"/>
  <outline>
    <contour>
      <point x="56" y="0" type="line"/>
      <point x="227" y="0" type="line"/>
      <point x="227" y="273" type="line"/>
      <point x="284" y="273" type="line"/>
      <point x="284" y="168" type="line"/>
      <point x="400" y="168" type="line"/>
      <point x="400" y="417" type="line"/>
      <point x="227" y="417" type="line"/>
      <point x="227" y="570" type="line"/>
      <point x="400" y="570" type="line"/>
      <point x="400" y="714" type="line"/>
      <point x="56" y="714" type="line"/>
    </contour>
  </outline>
</glyph>
<glyph name="uni03F1" format="2">
  <advance width="505"/>
  <unicode hex="03F1"/>
  <anchor x="253" y="-240" name="bottom"/>
  <anchor x="253" y="553" name="top"/>
  <outline>
    <contour>
      <point x="260" y="563" type="curve" smooth="yes"/>
      <point x="119" y="563"/>
      <point x="30" y="467"/>
      <point x="30" y="192" type="curve" smooth="yes"/>
      <point x="30" y="-82"/>
      <point x="85" y="-197"/>
      <point x="251" y="-197" type="curve" smooth="yes"/>
      <point x="267" y="-197"/>
      <point x="284" y="-206"/>
      <point x="284" y="-219" type="curve" smooth="yes"/>
      <point x="284" y="-228"/>
      <point x="282" y="-235"/>
      <point x="279" y="-240" type="curve"/>
      <point x="423" y="-240" type="line"/>
      <point x="428" y="-229"/>
      <point x="433" y="-203"/>
      <point x="433" y="-175" type="curve" smooth="yes"/>
      <point x="433" y="-91"/>
      <point x="391" y="-66"/>
      <point x="307" y="-66" type="curve" smooth="yes"/>
      <point x="228" y="-66"/>
      <point x="191" y="-34"/>
      <point x="191" y="77" type="curve"/>
      <point x="197" y="77" type="line"/>
      <point x="215" y="28"/>
      <point x="258" y="-10"/>
      <point x="310" y="-10" type="curve" smooth="yes"/>
      <point x="414" y="-10"/>
      <point x="474" y="82"/>
      <point x="474" y="249" type="curve" smooth="yes"/>
      <point x="474" y="444"/>
      <point x="404" y="563"/>
    </contour>
    <contour>
      <point x="255" y="428" type="curve" smooth="yes"/>
      <point x="292" y="428"/>
      <point x="309" y="376"/>
      <point x="309" y="271" type="curve" smooth="yes"/>
      <point x="309" y="168"/>
      <point x="293" y="117"/>
      <point x="261" y="117" type="curve" smooth="yes"/>
      <point x="235" y="117"/>
      <point x="204" y="163"/>
      <point x="195" y="199" type="curve"/>
      <point x="195" y="211"/>
      <point x="195" y="223"/>
      <point x="195" y="235" type="curve" smooth="yes"/>
      <point x="195" y="369"/>
      <point x="217" y="428"/>
    </contour>
  </outline>
</glyph>
<glyph name="uni03FA" format="2">
  <advance width="774"/>
  <unicode hex="03FA"/>
  <anchor x="387" y="0" name="bottom"/>
  <anchor x="387" y="714" name="top"/>
  <outline>
    <contour>
      <point x="56" y="0" type="line"/>
      <point x="216" y="0" type="line"/>
      <point x="216" y="269" type="line" smooth="yes"/>
      <point x="216" y="340"/>
      <point x="212" y="435"/>
      <point x="207" y="504" type="curve"/>
      <point x="209" y="504" type="line"/>
      <point x="303" y="210" type="line"/>
      <point x="446" y="210" type="line"/>
      <point x="556" y="504" type="line"/>
      <point x="559" y="504" type="line"/>
      <point x="555" y="435"/>
      <point x="554" y="341"/>
      <point x="554" y="275" type="curve" smooth="yes"/>
      <point x="554" y="0" type="line"/>
      <point x="718" y="0" type="line"/>
      <point x="718" y="714" type="line"/>
      <point x="501" y="714" type="line"/>
      <point x="382" y="387" type="line"/>
      <point x="380" y="387" type="line"/>
      <point x="270" y="714" type="line"/>
      <point x="56" y="714" type="line"/>
    </contour>
  </outline>
</glyph>
<glyph name="uni03FB" format="2">
  <advance width="684"/>
  <unicode hex="03FB"/>
  <anchor x="342" y="-240" name="bottom"/>
  <anchor x="342" y="553" name="top"/>
  <outline>
    <contour>
      <point x="47" y="-240" type="line"/>
      <point x="198" y="-240" type="line"/>
      <point x="198" y="305" type="line"/>
      <point x="198" y="345"/>
      <point x="198" y="381"/>
      <point x="197" y="424" type="curve"/>
      <point x="287" y="183" type="line"/>
      <point x="395" y="183" type="line"/>
      <point x="483" y="423" type="line"/>
      <point x="482" y="387"/>
      <point x="482" y="356"/>
      <point x="482" y="320" type="curve"/>
      <point x="482" y="0" type="line"/>
      <point x="636" y="0" type="line"/>
      <point x="636" y="553" type="line"/>
      <point x="403" y="553" type="line"/>
      <point x="342" y="366" type="line"/>
      <point x="276" y="553" type="line"/>
      <point x="47" y="553" type="line"/>
    </contour>
  </outline>
</glyph>
<glyph name="uni03FC" format="2">
  <advance width="510"/>
  <unicode hex="03FC"/>
  <anchor x="256" y="-240" name="bottom"/>
  <anchor x="256" y="553" name="top"/>
  <outline>
    <contour>
      <point x="45" y="-240" type="line"/>
      <point x="207" y="-240" type="line"/>
      <point x="207" y="-193" type="line"/>
      <point x="307" y="-193" type="line"/>
      <point x="307" y="-77" type="line"/>
      <point x="207" y="-77" type="line"/>
      <point x="206" y="-48"/>
      <point x="204" y="-14"/>
      <point x="200" y="23" type="curve"/>
      <point x="210" y="23" type="line"/>
      <point x="235" y="3"/>
      <point x="273" y="-10"/>
      <point x="311" y="-10" type="curve" smooth="yes"/>
      <point x="452" y="-10"/>
      <point x="480" y="171"/>
      <point x="480" y="276" type="curve" smooth="yes"/>
      <point x="480" y="466"/>
      <point x="382" y="563"/>
      <point x="264" y="563" type="curve" smooth="yes"/>
      <point x="102" y="563"/>
      <point x="45" y="430"/>
      <point x="45" y="273" type="curve" smooth="yes"/>
      <point x="45" y="-77" type="line"/>
      <point x="0" y="-77" type="line"/>
      <point x="0" y="-193" type="line"/>
      <point x="45" y="-193" type="line"/>
    </contour>
    <contour>
      <point x="264" y="125" type="curve" smooth="yes"/>
      <point x="245" y="125"/>
      <point x="221" y="138"/>
      <point x="207" y="162" type="curve"/>
      <point x="207" y="302" type="line" smooth="yes"/>
      <point x="207" y="386"/>
      <point x="226" y="428"/>
      <point x="262" y="428" type="curve" smooth="yes"/>
      <point x="298" y="428"/>
      <point x="315" y="383"/>
      <point x="315" y="276" type="curve" smooth="yes"/>
      <point x="315" y="170"/>
      <point x="300" y="125"/>
    </contour>
  </outline>
</glyph>
<glyph name="afii10018" format="2">
  <advance width="506"/>
  <unicode hex="0411"/>
  <anchor x="253" y="0" name="bottom"/>
  <anchor x="253" y="714" name="top"/>
  <outline>
    <contour>
      <point x="56" y="0" type="line"/>
      <point x="237" y="0" type="line" smooth="yes"/>
      <point x="389" y="0"/>
      <point x="479" y="84"/>
      <point x="479" y="237" type="curve" smooth="yes"/>
      <point x="479" y="384"/>
      <point x="388" y="460"/>
      <point x="229" y="460" type="curve" smooth="yes"/>
      <point x="227" y="460" type="line"/>
      <point x="227" y="567" type="line"/>
      <point x="428" y="567" type="line"/>
      <point x="428" y="714" type="line"/>
      <point x="56" y="714" type="line"/>
    </contour>
    <contour>
      <point x="227" y="144" type="line"/>
      <point x="227" y="316" type="line"/>
      <point x="229" y="316" type="line" smooth="yes"/>
      <point x="282" y="316"/>
      <point x="308" y="288"/>
      <point x="308" y="232" type="curve" smooth="yes"/>
      <point x="308" y="173"/>
      <point x="282" y="144"/>
      <point x="229" y="144" type="curve" smooth="yes"/>
    </contour>
  </outline>
</glyph>
<glyph name="uni0488" format="2">
  <advance width="860"/>
  <unicode hex="0488"/>
  <outline>
    <contour>
      <point x="559" y="456" type="curve"/>
      <point x="615" y="456" type="line"/>
      <point x="617" y="477"/>
      <point x="636" y="488"/>
      <point x="673" y="488" type="curve" smooth="yes"/>
      <point x="719" y="488"/>
      <point x="730" y="478"/>
      <point x="732" y="456" type="curve"/>
      <point x="788" y="456" type="line"/>
      <point x="786" y="517"/>
      <point x="740" y="557"/>
      <point x="673" y="557" type="curve" smooth="yes"/>
      <point x="610" y="557"/>
      <point x="562" y="514"/>
    </contour>
    <contour>
      <point x="73" y="-20" type="curve"/>
      <point x="130" y="-20" type="line"/>
      <point x="131" y="0"/>
      <point x="153" y="12"/>
      <point x="188" y="12" type="curve" smooth="yes"/>
      <point x="234" y="12"/>
      <point x="245" y="1"/>
      <point x="247" y="-20" type="curve"/>
      <point x="303" y="-20" type="line"/>
      <point x="299" y="42"/>
      <point x="255" y="81"/>
      <point x="188" y="81" type="curve" smooth="yes"/>
      <point x="127" y="81"/>
      <point x="76" y="39"/>
    </contour>
    <contour>
      <point x="312" y="-156" type="curve"/>
      <point x="369" y="-156" type="line"/>
      <point x="369" y="-135"/>
      <point x="389" y="-124"/>
      <point x="426" y="-124" type="curve" smooth="yes"/>
      <point x="472" y="-124"/>
      <point x="483" y="-134"/>
      <point x="485" y="-156" type="curve"/>
      <point x="542" y="-156" type="line"/>
      <point x="539" y="-96"/>
      <point x="494" y="-55"/>
      <point x="426" y="-55" type="curve" smooth="yes"/>
      <point x="363" y="-55"/>
      <point x="315" y="-97"/>
    </contour>
    <contour>
      <point x="14" y="221" type="curve"/>
      <point x="71" y="221" type="line"/>
      <point x="71" y="242"/>
      <point x="92" y="253"/>
      <point x="130" y="253" type="curve" smooth="yes"/>
      <point x="173" y="253"/>
      <point x="185" y="244"/>
      <point x="187" y="221" type="curve"/>
      <point x="244" y="221" type="line"/>
      <point x="241" y="282"/>
      <point x="197" y="322"/>
      <point x="130" y="322" type="curve" smooth="yes"/>
      <point x="66" y="322"/>
      <point x="17" y="279"/>
    </contour>
    <contour>
      <point x="72" y="454" type="curve"/>
      <point x="128" y="454" type="line"/>
      <point x="130" y="474"/>
      <point x="151" y="486"/>
      <point x="186" y="486" type="curve" smooth="yes"/>
      <point x="233" y="486"/>
      <point x="244" y="475"/>
      <point x="245" y="454" type="curve"/>
      <point x="301" y="454" type="line"/>
      <point x="299" y="515"/>
      <point x="253" y="555"/>
      <point x="186" y="555" type="curve" smooth="yes"/>
      <point x="123" y="555"/>
      <point x="75" y="512"/>
    </contour>
    <contour>
      <point x="559" y="-20" type="curve"/>
      <point x="616" y="-20" type="line"/>
      <point x="617" y="1"/>
      <point x="636" y="12"/>
      <point x="673" y="12" type="curve" smooth="yes"/>
      <point x="719" y="12"/>
      <point x="730" y="2"/>
      <point x="732" y="-20" type="curve"/>
      <point x="789" y="-20" type="line"/>
      <point x="786" y="40"/>
      <point x="741" y="81"/>
      <point x="673" y="81" type="curve" smooth="yes"/>
      <point x="611" y="81"/>
      <point x="562" y="38"/>
    </contour>
    <contour>
      <point x="616" y="217" type="curve"/>
      <point x="674" y="217" type="line"/>
      <point x="674" y="238"/>
      <point x="694" y="249"/>
      <point x="732" y="249" type="curve" smooth="yes"/>
      <point x="777" y="249"/>
      <point x="789" y="239"/>
      <point x="791" y="217" type="curve"/>
      <point x="846" y="217" type="line"/>
      <point x="842" y="279"/>
      <point x="798" y="318"/>
      <point x="732" y="318" type="curve" smooth="yes"/>
      <point x="671" y="318"/>
      <point x="619" y="276"/>
    </contour>
    <contour>
      <point x="311" y="595" type="curve"/>
      <point x="368" y="595" type="line"/>
      <point x="368" y="616"/>
      <point x="389" y="627"/>
      <point x="426" y="627" type="curve" smooth="yes"/>
      <point x="471" y="627"/>
      <point x="483" y="617"/>
      <point x="485" y="595" type="curve"/>
      <point x="540" y="595" type="line"/>
      <point x="538" y="656"/>
      <point x="494" y="696"/>
      <point x="426" y="696" type="curve" smooth="yes"/>
      <point x="364" y="696"/>
      <point x="314" y="654"/>
    </contour>
  </outline>
</glyph>
<glyph name="uni0489" format="2">
  <advance width="846"/>
  <unicode hex="0489"/>
  <outline>
    <contour>
      <point x="703" y="602" type="line"/>
      <point x="665" y="588"/>
      <point x="586" y="550"/>
      <point x="550" y="529" type="curve"/>
      <point x="549" y="520" type="line"/>
      <point x="619" y="449" type="line"/>
      <point x="654" y="477"/>
      <point x="702" y="509"/>
      <point x="760" y="546" type="curve"/>
    </contour>
    <contour>
      <point x="227" y="90" type="line"/>
      <point x="195" y="64"/>
      <point x="147" y="32"/>
      <point x="86" y="-6" type="curve"/>
      <point x="143" y="-63" type="line"/>
      <point x="201" y="-41"/>
      <point x="251" y="-17"/>
      <point x="296" y="11" type="curve"/>
      <point x="298" y="20" type="line"/>
    </contour>
    <contour>
      <point x="14" y="337" type="curve"/>
      <point x="14" y="257" type="line"/>
      <point x="68" y="231"/>
      <point x="122" y="211"/>
      <point x="173" y="198" type="curve"/>
      <point x="180" y="203" type="line"/>
      <point x="180" y="303" type="line"/>
      <point x="139" y="309"/>
      <point x="83" y="320"/>
    </contour>
    <contour>
      <point x="490" y="-17" type="line"/>
      <point x="390" y="-17" type="line"/>
      <point x="385" y="-59"/>
      <point x="373" y="-116"/>
      <point x="357" y="-188" type="curve"/>
      <point x="436" y="-188" type="line"/>
      <point x="461" y="-131"/>
      <point x="481" y="-77"/>
      <point x="495" y="-24" type="curve"/>
    </contour>
    <contour>
      <point x="641" y="114" type="line"/>
      <point x="572" y="43" type="line"/>
      <point x="599" y="7"/>
      <point x="630" y="-41"/>
      <point x="665" y="-101" type="curve"/>
      <point x="721" y="-45" type="line"/>
      <point x="707" y="-5"/>
      <point x="670" y="75"/>
      <point x="650" y="113" type="curve"/>
    </contour>
    <contour>
      <point x="181" y="642" type="curve"/>
      <point x="124" y="585" type="line"/>
      <point x="145" y="526"/>
      <point x="169" y="474"/>
      <point x="196" y="427" type="curve"/>
      <point x="204" y="425" type="line"/>
      <point x="274" y="497" type="line"/>
      <point x="249" y="530"/>
      <point x="218" y="579"/>
    </contour>
    <contour>
      <point x="673" y="342" type="curve"/>
      <point x="666" y="336" type="line"/>
      <point x="666" y="237" type="line"/>
      <point x="711" y="230"/>
      <point x="766" y="219"/>
      <point x="832" y="203" type="curve"/>
      <point x="832" y="282" type="line"/>
      <point x="795" y="301"/>
      <point x="714" y="330"/>
    </contour>
    <contour>
      <point x="489" y="728" type="curve"/>
      <point x="411" y="728" type="line"/>
      <point x="393" y="689"/>
      <point x="363" y="606"/>
      <point x="353" y="564" type="curve"/>
      <point x="357" y="557" type="line"/>
      <point x="457" y="557" type="line"/>
      <point x="463" y="603"/>
      <point x="474" y="659"/>
    </contour>
  </outline>
</glyph>
<glyph name="uni0492" format="2">
  <advance width="433"/>
  <unicode hex="0492"/>
  <anchor x="217" y="0" name="bottom"/>
  <anchor x="217" y="714" name="top"/>
  <outline>
    <contour>
      <point x="420" y="714" type="line"/>
      <point x="56" y="714" type="line"/>
      <point x="56" y="426" type="line"/>
      <point x="6" y="426" type="line"/>
      <point x="6" y="286" type="line"/>
      <point x="56" y="286" type="line"/>
      <point x="56" y="0" type="line"/>
      <point x="227" y="0" type="line"/>
      <point x="227" y="286" type="line"/>
      <point x="351" y="286" type="line"/>
      <point x="351" y="426" type="line"/>
      <point x="227" y="426" type="line"/>
      <point x="227" y="570" type="line"/>
      <point x="420" y="570" type="line"/>
    </contour>
  </outline>
</glyph>
<glyph name="uni049E" format="2">
  <advance width="543"/>
  <unicode hex="049E"/>
  <anchor x="276" y="0" name="bottom"/>
  <anchor x="276" y="714" name="top"/>
  <outline>
    <contour>
      <point x="7" y="541" type="line"/>
      <point x="273" y="541" type="line"/>
      <point x="273" y="661" type="line"/>
      <point x="7" y="661" type="line"/>
    </contour>
    <component base="afii10028"/>
  </outline>
</glyph>
<glyph name="uni052A" format="2">
  <advance width="1235"/>
  <unicode hex="052A"/>
  <anchor x="622" y="-222" name="bottom"/>
  <anchor x="622" y="714" name="top"/>
  <outline>
    <contour>
      <point x="519" y="436" type="line"/>
      <point x="519" y="305" type="line"/>
      <point x="790" y="305" type="line"/>
      <point x="790" y="436" type="line"/>
    </contour>
    <component base="afii10021"/>
    <component base="afii10028" xOffset="692"/>
  </outline>
</glyph>
<glyph name="uni052F" format="2">
  <advance width="610"/>
  <unicode hex="052F"/>
  <anchor x="306" y="-200" name="bottom"/>
  <anchor x="306" y="553" name="top"/>
  <outline>
    <contour>
      <point x="388" y="0" type="line"/>
      <point x="457" y="0" type="line"/>
      <point x="457" y="-200" type="line"/>
      <point x="599" y="-200" type="line"/>
      <point x="599" y="121" type="line"/>
      <point x="485" y="121" type="line"/>
    </contour>
    <component base="afii10077"/>
  </outline>
</glyph>
<glyph name="uni1AB9" format="2">
  <unicode hex="1AB9"/>
  <anchor x="0" y="90" name="_bottom"/>
  <anchor x="2" y="-240" name="bottom"/>
  <outline>
    <contour>
      <point x="1" y="40" type="line"/>
      <point x="-108" y="-240" type="line"/>
      <point x="0" y="-240" type="line"/>
      <point x="109" y="40" type="line"/>
    </contour>
  </outline>
</glyph>
<glyph name="uni1ABA" format="2">
  <unicode hex="1ABA"/>
  <anchor x="4" y="90" name="_bottom"/>
  <anchor x="5" y="-240" name="bottom"/>
  <outline>
    <contour>
      <point x="1" y="40" type="line"/>
      <point x="-83" y="-177" type="line"/>
      <point x="25" y="-177" type="line"/>
      <point x="109" y="40" type="line"/>
    </contour>
    <contour>
      <point x="-102" y="-167" type="curve" smooth="yes"/>
      <point x="-102" y="-216"/>
      <point x="-76" y="-240"/>
      <point x="-24" y="-240" type="curve" smooth="yes"/>
      <point x="29" y="-240"/>
      <point x="54" y="-216"/>
      <point x="54" y="-167" type="curve" smooth="yes"/>
      <point x="54" y="-118"/>
      <point x="31" y="-92"/>
      <point x="-24" y="-92" type="curve" smooth="yes"/>
      <point x="-79" y="-92"/>
      <point x="-102" y="-117"/>
    </contour>
  </outline>
</glyph>
<glyph name="uni1D24" format="2">
  <advance width="389"/>
  <unicode hex="1D24"/>
  <anchor x="194" y="0" name="bottom"/>
  <anchor x="194" y="553" name="top"/>
  <outline>
    <contour>
      <point x="209" y="-10" type="curve" smooth="yes"/>
      <point x="262" y="-10"/>
      <point x="313" y="-2"/>
      <point x="364" y="21" type="curve"/>
      <point x="364" y="174" type="line"/>
      <point x="324" y="150"/>
      <point x="275" y="129"/>
      <point x="227" y="129" type="curve" smooth="yes"/>
      <point x="198" y="129"/>
      <point x="183" y="144"/>
      <point x="183" y="167" type="curve" smooth="yes"/>
      <point x="183" y="185"/>
      <point x="195" y="197"/>
      <point x="244" y="208" type="curve"/>
      <point x="244" y="249" type="line"/>
      <point x="340" y="276"/>
      <point x="365" y="341"/>
      <point x="365" y="404" type="curve" smooth="yes"/>
      <point x="365" y="507"/>
      <point x="301" y="563"/>
      <point x="187" y="563" type="curve" smooth="yes"/>
      <point x="131" y="563"/>
      <point x="84" y="547"/>
      <point x="31" y="516" type="curve"/>
      <point x="71" y="393" type="line"/>
      <point x="103" y="415"/>
      <point x="140" y="434"/>
      <point x="177" y="434" type="curve" smooth="yes"/>
      <point x="198" y="434"/>
      <point x="210" y="420"/>
      <point x="210" y="402" type="curve" smooth="yes"/>
      <point x="210" y="384"/>
      <point x="192" y="367"/>
      <point x="152" y="359" type="curve"/>
      <point x="152" y="319" type="line"/>
      <point x="64" y="295"/>
      <point x="23" y="240"/>
      <point x="23" y="160" type="curve" smooth="yes"/>
      <point x="23" y="51"/>
      <point x="92" y="-10"/>
    </contour>
  </outline>
</glyph>
<glyph name="uni1D70" format="2">
  <advance width="517"/>
  <unicode hex="1D70"/>
  <anchor x="292" y="0" name="bottom"/>
  <anchor x="302" y="553" name="top"/>
  <anchor x="523" y="553" name="topright"/>
  <outline>
    <contour>
      <point x="617" y="332" type="curve"/>
      <point x="532" y="332" type="line"/>
      <point x="531" y="300"/>
      <point x="512" y="283"/>
      <point x="483" y="283" type="curve" smooth="yes"/>
      <point x="358" y="283"/>
      <point x="263" y="332"/>
      <point x="126" y="332" type="curve" smooth="yes"/>
      <point x="39" y="332"/>
      <point x="-28" y="278"/>
      <point x="-33" y="168" type="curve"/>
      <point x="52" y="168" type="line"/>
      <point x="56" y="207"/>
      <point x="77" y="218"/>
      <point x="109" y="218" type="curve" smooth="yes"/>
      <point x="226" y="218"/>
      <point x="331" y="169"/>
      <point x="450" y="169" type="curve" smooth="yes"/>
      <point x="552" y="169"/>
      <point x="612" y="223"/>
    </contour>
    <component base="n" xOffset="33"/>
  </outline>
</glyph>
<glyph name="uni1D7A" format="2">
  <advance width="883"/>
  <unicode hex="1D7A"/>
  <anchor x="205" y="0" name="bottom_1"/>
  <anchor x="614" y="0" name="bottom_2"/>
  <anchor x="165" y="277" name="center_1"/>
  <anchor x="613" y="277" name="center_2"/>
  <anchor x="162" y="664" name="top_1"/>
  <anchor x="482" y="760" name="top_2"/>
  <anchor x="215" y="900" name="topright_1"/>
  <anchor x="829" y="760" name="topright_2"/>
  <outline>
    <contour>
      <point x="76" y="-75" type="line"/>
      <point x="158" y="-75" type="line"/>
      <point x="767" y="760" type="line"/>
      <point x="685" y="760" type="line"/>
    </contour>
    <component base="t"/>
    <component base="h" xOffset="354"/>
  </outline>
</glyph>
<glyph name="uni1D7B" format="2">
  <advance width="347"/>
  <unicode hex="1D7B"/>
  <anchor x="174" y="0" name="bottom"/>
  <anchor x="174" y="553" name="top"/>
  <outline>
    <contour>
      <point x="306" y="353" type="line"/>
      <point x="41" y="353" type="line"/>
      <point x="41" y="237" type="line"/>
      <point x="306" y="237" type="line"/>
    </contour>
    <component base="uni026A"/>
  </outline>
</glyph>
<glyph name="uni1D7D" format="2">
  <advance width="524"/>
  <unicode hex="1D7D"/>
  <anchor x="127" y="-240" name="bottom"/>
  <anchor x="283" y="553" name="top"/>
  <anchor x="493" y="553" name="topright"/>
  <outline>
    <contour>
      <point x="524" y="331" type="line"/>
      <point x="0" y="331" type="line"/>
      <point x="0" y="221" type="line"/>
      <point x="524" y="221" type="line"/>
    </contour>
    <component base="p"/>
  </outline>
</glyph>
<glyph name="uni1D7F" format="2">
  <advance width="525"/>
  <unicode hex="1D7F"/>
  <anchor x="262" y="0" name="bottom"/>
  <anchor x="262" y="553" name="top"/>
  <outline>
    <contour>
      <point x="531" y="331" type="line"/>
      <point x="-5" y="331" type="line"/>
      <point x="-5" y="221" type="line"/>
      <point x="531" y="221" type="line"/>
    </contour>
    <component base="uni028A"/>
  </outline>
</glyph>
<glyph name="uni1FBD" format="2">
  <advance width="242"/>
  <unicode hex="1FBD"/>
  <anchor x="126" y="544" name="_top"/>
  <outline>
    <contour>
      <point x="52" y="640" type="curve"/>
      <point x="52" y="594" type="line"/>
      <point x="148" y="596"/>
      <point x="192" y="643"/>
      <point x="192" y="716" type="curve" smooth="yes"/>
      <point x="192" y="761"/>
      <point x="165" y="794"/>
      <point x="121" y="794" type="curve" smooth="yes"/>
      <point x="83" y="794"/>
      <point x="59" y="775"/>
      <point x="59" y="741" type="curve" smooth="yes"/>
      <point x="59" y="707"/>
      <point x="74" y="688"/>
      <point x="114" y="687" type="curve"/>
      <point x="114" y="661"/>
      <point x="87" y="642"/>
    </contour>
  </outline>
</glyph>
<glyph name="uni1FBE" format="2">
  <advance width="582"/>
  <unicode hex="1FBE"/>
  <outline>
    <contour>
      <point x="336" y="-98" type="curve" smooth="yes"/>
      <point x="336" y="-52" type="line"/>
      <point x="212" y="-52" type="line"/>
      <point x="212" y="-127" type="line" smooth="yes"/>
      <point x="212" y="-202"/>
      <point x="251" y="-240"/>
      <point x="324" y="-240" type="curve" smooth="yes"/>
      <point x="351" y="-240"/>
      <point x="378" y="-234"/>
      <point x="394" y="-227" type="curve"/>
      <point x="394" y="-131" type="line"/>
      <point x="385" y="-134"/>
      <point x="376" y="-136"/>
      <point x="366" y="-136" type="curve" smooth="yes"/>
      <point x="349" y="-136"/>
      <point x="336" y="-127"/>
    </contour>
  </outline>
</glyph>
<glyph name="uni1FC1" format="2">
  <advance width="493"/>
  <unicode hex="1FC1"/>
  <anchor x="241" y="535" name="_top"/>
  <outline>
    <contour>
      <point x="96" y="749" type="curve"/>
      <point x="160" y="749" type="line"/>
      <point x="167" y="783"/>
      <point x="178" y="790"/>
      <point x="184" y="790" type="curve"/>
      <point x="221" y="790"/>
      <point x="268" y="750"/>
      <point x="311" y="750" type="curve" smooth="yes"/>
      <point x="352" y="750"/>
      <point x="389" y="787"/>
      <point x="397" y="875" type="curve"/>
      <point x="331" y="875" type="line"/>
      <point x="325" y="841"/>
      <point x="314" y="834"/>
      <point x="307" y="834" type="curve" smooth="yes"/>
      <point x="269" y="834"/>
      <point x="219" y="874"/>
      <point x="184" y="874" type="curve" smooth="yes"/>
      <point x="137" y="874"/>
      <point x="103" y="838"/>
    </contour>
    <contour>
      <point x="161" y="585" type="curve"/>
      <point x="198" y="585"/>
      <point x="226" y="608"/>
      <point x="226" y="649" type="curve"/>
      <point x="226" y="692"/>
      <point x="198" y="715"/>
      <point x="161" y="715" type="curve"/>
      <point x="122" y="715"/>
      <point x="98" y="693"/>
      <point x="98" y="649" type="curve"/>
      <point x="98" y="608"/>
      <point x="122" y="585"/>
    </contour>
    <contour>
      <point x="323" y="585" type="curve"/>
      <point x="361" y="585"/>
      <point x="388" y="608"/>
      <point x="388" y="649" type="curve"/>
      <point x="388" y="692"/>
      <point x="361" y="715"/>
      <point x="323" y="715" type="curve"/>
      <point x="283" y="715"/>
      <point x="260" y="693"/>
      <point x="260" y="649" type="curve"/>
      <point x="260" y="608"/>
      <point x="283" y="585"/>
    </contour>
  </outline>
</glyph>
<glyph name="uni1FCD" format="2">
  <advance width="504"/>
  <unicode hex="1FCD"/>
  <outline>
    <contour>
      <point x="332" y="608" type="curve"/>
      <point x="405" y="608" type="line"/>
      <point x="405" y="620" type="line"/>
      <point x="393" y="655"/>
      <point x="378" y="717"/>
      <point x="372" y="766" type="curve"/>
      <point x="246" y="766" type="line"/>
      <point x="246" y="750" type="line"/>
      <point x="262" y="706"/>
      <point x="299" y="650"/>
    </contour>
    <contour>
      <point x="119" y="639" type="curve"/>
      <point x="119" y="598" type="line"/>
      <point x="196" y="598"/>
      <point x="240" y="638"/>
      <point x="240" y="698" type="curve" smooth="yes"/>
      <point x="240" y="749"/>
      <point x="218" y="777"/>
      <point x="170" y="777" type="curve" smooth="yes"/>
      <point x="129" y="777"/>
      <point x="111" y="755"/>
      <point x="111" y="727" type="curve" smooth="yes"/>
      <point x="111" y="683"/>
      <point x="149" y="691"/>
      <point x="149" y="667" type="curve" smooth="yes"/>
      <point x="149" y="651"/>
      <point x="145" y="641"/>
    </contour>
  </outline>
</glyph>
<glyph name="uni1FCE" format="2">
  <advance width="505"/>
  <unicode hex="1FCE"/>
  <anchor x="235" y="548" name="_top"/>
  <anchor x="263" y="777" name="top"/>
  <outline>
    <contour>
      <point x="247" y="608" type="line"/>
      <point x="321" y="608" type="line"/>
      <point x="353" y="650"/>
      <point x="389" y="706"/>
      <point x="406" y="750" type="curve"/>
      <point x="406" y="766" type="line"/>
      <point x="280" y="766" type="line"/>
      <point x="273" y="717"/>
      <point x="259" y="655"/>
      <point x="247" y="620" type="curve"/>
    </contour>
    <contour>
      <point x="123" y="598" type="line"/>
      <point x="200" y="598"/>
      <point x="244" y="638"/>
      <point x="244" y="698" type="curve" smooth="yes"/>
      <point x="244" y="749"/>
      <point x="222" y="777"/>
      <point x="174" y="777" type="curve" smooth="yes"/>
      <point x="133" y="777"/>
      <point x="115" y="755"/>
      <point x="115" y="727" type="curve" smooth="yes"/>
      <point x="115" y="683"/>
      <point x="153" y="691"/>
      <point x="153" y="667" type="curve" smooth="yes"/>
      <point x="153" y="651"/>
      <point x="149" y="641"/>
      <point x="123" y="639" type="curve"/>
    </contour>
  </outline>
</glyph>
<glyph name="uni1FCF" format="2">
  <advance width="513"/>
  <unicode hex="1FCF"/>
  <anchor x="263" y="534" name="_top"/>
  <anchor x="263" y="888" name="top"/>
  <outline>
    <contour>
      <point x="111" y="762" type="curve"/>
      <point x="175" y="762" type="line"/>
      <point x="182" y="797"/>
      <point x="198" y="803"/>
      <point x="204" y="803" type="curve" smooth="yes"/>
      <point x="240" y="803"/>
      <point x="282" y="763"/>
      <point x="324" y="763" type="curve" smooth="yes"/>
      <point x="365" y="763"/>
      <point x="402" y="801"/>
      <point x="410" y="888" type="curve"/>
      <point x="345" y="888" type="line"/>
      <point x="339" y="854"/>
      <point x="322" y="847"/>
      <point x="316" y="847" type="curve" smooth="yes"/>
      <point x="278" y="847"/>
      <point x="233" y="887"/>
      <point x="199" y="887" type="curve" smooth="yes"/>
      <point x="152" y="887"/>
      <point x="118" y="852"/>
    </contour>
    <contour>
      <point x="200" y="584" type="line"/>
      <point x="276" y="584"/>
      <point x="322" y="623"/>
      <point x="322" y="681" type="curve" smooth="yes"/>
      <point x="322" y="727"/>
      <point x="299" y="755"/>
      <point x="250" y="755" type="curve" smooth="yes"/>
      <point x="210" y="755"/>
      <point x="193" y="733"/>
      <point x="193" y="705" type="curve" smooth="yes"/>
      <point x="193" y="668"/>
      <point x="230" y="676"/>
      <point x="230" y="652" type="curve" smooth="yes"/>
      <point x="230" y="637"/>
      <point x="225" y="626"/>
      <point x="200" y="624" type="curve"/>
    </contour>
  </outline>
</glyph>
<glyph name="uni1FDD" format="2">
  <advance width="527"/>
  <unicode hex="1FDD"/>
  <anchor x="255" y="548" name="_top"/>
  <anchor x="260" y="777" name="top"/>
  <outline>
    <contour>
      <point x="334" y="608" type="curve"/>
      <point x="409" y="608" type="line"/>
      <point x="409" y="620" type="line"/>
      <point x="397" y="655"/>
      <point x="382" y="717"/>
      <point x="376" y="766" type="curve"/>
      <point x="249" y="766" type="line"/>
      <point x="249" y="750" type="line"/>
      <point x="266" y="706"/>
      <point x="303" y="650"/>
    </contour>
    <contour>
      <point x="227" y="598" type="curve"/>
      <point x="227" y="639" type="line"/>
      <point x="202" y="641"/>
      <point x="196" y="651"/>
      <point x="196" y="667" type="curve" smooth="yes"/>
      <point x="196" y="691"/>
      <point x="235" y="683"/>
      <point x="235" y="727" type="curve" smooth="yes"/>
      <point x="235" y="755"/>
      <point x="218" y="777"/>
      <point x="177" y="777" type="curve" smooth="yes"/>
      <point x="129" y="777"/>
      <point x="106" y="749"/>
      <point x="106" y="698" type="curve" smooth="yes"/>
      <point x="106" y="638"/>
      <point x="151" y="598"/>
    </contour>
  </outline>
</glyph>
<glyph name="uni1FDE" format="2">
  <advance width="527"/>
  <unicode hex="1FDE"/>
  <outline>
    <contour>
      <point x="260" y="620" type="curve"/>
      <point x="260" y="608" type="line"/>
      <point x="334" y="608" type="line"/>
      <point x="366" y="650"/>
      <point x="402" y="706"/>
      <point x="419" y="750" type="curve"/>
      <point x="419" y="766" type="line"/>
      <point x="293" y="766" type="line"/>
      <point x="286" y="717"/>
      <point x="272" y="655"/>
    </contour>
    <contour>
      <point x="238" y="598" type="curve"/>
      <point x="238" y="639" type="line"/>
      <point x="213" y="641"/>
      <point x="207" y="651"/>
      <point x="207" y="667" type="curve" smooth="yes"/>
      <point x="207" y="691"/>
      <point x="246" y="683"/>
      <point x="246" y="727" type="curve" smooth="yes"/>
      <point x="246" y="755"/>
      <point x="229" y="777"/>
      <point x="188" y="777" type="curve" smooth="yes"/>
      <point x="140" y="777"/>
      <point x="117" y="749"/>
      <point x="117" y="698" type="curve" smooth="yes"/>
      <point x="117" y="638"/>
      <point x="162" y="598"/>
    </contour>
  </outline>
</glyph>
<glyph name="uni1FDF" format="2">
  <advance width="513"/>
  <unicode hex="1FDF"/>
  <outline>
    <contour>
      <point x="111" y="762" type="curve"/>
      <point x="175" y="762" type="line"/>
      <point x="182" y="797"/>
      <point x="193" y="803"/>
      <point x="199" y="803" type="curve"/>
      <point x="235" y="803"/>
      <point x="282" y="763"/>
      <point x="324" y="763" type="curve" smooth="yes"/>
      <point x="365" y="763"/>
      <point x="402" y="801"/>
      <point x="410" y="888" type="curve"/>
      <point x="345" y="888" type="line"/>
      <point x="339" y="854"/>
      <point x="327" y="847"/>
      <point x="321" y="847" type="curve" smooth="yes"/>
      <point x="283" y="847"/>
      <point x="233" y="887"/>
      <point x="199" y="887" type="curve" smooth="yes"/>
      <point x="152" y="887"/>
      <point x="118" y="852"/>
    </contour>
    <contour>
      <point x="316" y="584" type="curve"/>
      <point x="316" y="624" type="line"/>
      <point x="290" y="626"/>
      <point x="285" y="637"/>
      <point x="285" y="652" type="curve" smooth="yes"/>
      <point x="285" y="676"/>
      <point x="324" y="668"/>
      <point x="324" y="705" type="curve" smooth="yes"/>
      <point x="324" y="733"/>
      <point x="305" y="755"/>
      <point x="265" y="755" type="curve" smooth="yes"/>
      <point x="217" y="755"/>
      <point x="195" y="727"/>
      <point x="195" y="681" type="curve" smooth="yes"/>
      <point x="195" y="623"/>
      <point x="239" y="584"/>
    </contour>
  </outline>
</glyph>
<glyph name="uni1FED" format="2">
  <advance width="506"/>
  <unicode hex="1FED"/>
  <anchor x="254" y="553" name="_top"/>
  <outline>
    <contour>
      <point x="313" y="617" type="line"/>
      <point x="313" y="631" type="line"/>
      <point x="308" y="669"/>
      <point x="302" y="735"/>
      <point x="302" y="777" type="curve"/>
      <point x="173" y="777" type="line"/>
      <point x="173" y="767" type="line"/>
      <point x="188" y="722"/>
      <point x="211" y="671"/>
      <point x="240" y="617" type="curve"/>
    </contour>
    <contour>
      <point x="51" y="678" type="curve" smooth="yes"/>
      <point x="51" y="628"/>
      <point x="75" y="605"/>
      <point x="116" y="605" type="curve" smooth="yes"/>
      <point x="154" y="605"/>
      <point x="180" y="628"/>
      <point x="180" y="678" type="curve" smooth="yes"/>
      <point x="180" y="729"/>
      <point x="154" y="752"/>
      <point x="116" y="752" type="curve" smooth="yes"/>
      <point x="75" y="752"/>
      <point x="51" y="729"/>
    </contour>
    <contour>
      <point x="324" y="678" type="curve" smooth="yes"/>
      <point x="324" y="628"/>
      <point x="348" y="605"/>
      <point x="389" y="605" type="curve" smooth="yes"/>
      <point x="429" y="605"/>
      <point x="455" y="628"/>
      <point x="455" y="678" type="curve" smooth="yes"/>
      <point x="455" y="729"/>
      <point x="429" y="752"/>
      <point x="389" y="752" type="curve" smooth="yes"/>
      <point x="348" y="752"/>
      <point x="324" y="729"/>
    </contour>
  </outline>
</glyph>
<glyph name="uni1FEE" format="2">
  <advance width="506"/>
  <unicode hex="1FEE"/>
  <outline>
    <contour>
      <point x="191" y="631" type="curve"/>
      <point x="191" y="617" type="line"/>
      <point x="264" y="617" type="line"/>
      <point x="293" y="671"/>
      <point x="316" y="722"/>
      <point x="331" y="767" type="curve"/>
      <point x="331" y="777" type="line"/>
      <point x="202" y="777" type="line"/>
      <point x="202" y="735"/>
      <point x="195" y="669"/>
    </contour>
    <contour>
      <point x="116" y="605" type="curve" smooth="yes"/>
      <point x="154" y="605"/>
      <point x="180" y="628"/>
      <point x="180" y="678" type="curve" smooth="yes"/>
      <point x="180" y="729"/>
      <point x="154" y="752"/>
      <point x="116" y="752" type="curve" smooth="yes"/>
      <point x="75" y="752"/>
      <point x="51" y="729"/>
      <point x="51" y="678" type="curve" smooth="yes"/>
      <point x="51" y="628"/>
      <point x="75" y="605"/>
    </contour>
    <contour>
      <point x="389" y="605" type="curve" smooth="yes"/>
      <point x="429" y="605"/>
      <point x="455" y="628"/>
      <point x="455" y="678" type="curve" smooth="yes"/>
      <point x="455" y="729"/>
      <point x="429" y="752"/>
      <point x="389" y="752" type="curve" smooth="yes"/>
      <point x="348" y="752"/>
      <point x="324" y="729"/>
      <point x="324" y="678" type="curve" smooth="yes"/>
      <point x="324" y="628"/>
      <point x="348" y="605"/>
    </contour>
  </outline>
</glyph>
<glyph name="uni1FEF" format="2">
  <advance width="551"/>
  <unicode hex="1FEF"/>
  <anchor x="271" y="553" name="_top"/>
  <anchor x="253" y="773" name="top"/>
  <outline>
    <contour>
      <point x="334" y="606" type="line"/>
      <point x="334" y="622" type="line"/>
      <point x="326" y="657"/>
      <point x="315" y="724"/>
      <point x="311" y="773" type="curve"/>
      <point x="166" y="773" type="line"/>
      <point x="166" y="759" type="line"/>
      <point x="187" y="706"/>
      <point x="213" y="651"/>
      <point x="242" y="606" type="curve"/>
    </contour>
  </outline>
</glyph>
<glyph name="uni1FFD" format="2">
  <advance width="548"/>
  <unicode hex="1FFD"/>
  <anchor x="276" y="553" name="_top"/>
  <outline>
    <contour>
      <point x="217" y="622" type="curve"/>
      <point x="217" y="606" type="line"/>
      <point x="317" y="606" type="line"/>
      <point x="344" y="655"/>
      <point x="367" y="704"/>
      <point x="386" y="752" type="curve"/>
      <point x="386" y="765" type="line"/>
      <point x="243" y="765" type="line"/>
      <point x="240" y="740"/>
      <point x="224" y="647"/>
    </contour>
  </outline>
</glyph>
<glyph name="uni1FFE" format="2">
  <advance width="238"/>
  <unicode hex="1FFE"/>
  <outline>
    <contour>
      <point x="189" y="597" type="curve"/>
      <point x="189" y="642" type="line"/>
      <point x="155" y="644"/>
      <point x="127" y="664"/>
      <point x="127" y="690" type="curve"/>
      <point x="167" y="690"/>
      <point x="181" y="710"/>
      <point x="181" y="743" type="curve" smooth="yes"/>
      <point x="181" y="778"/>
      <point x="159" y="796"/>
      <point x="120" y="796" type="curve" smooth="yes"/>
      <point x="77" y="796"/>
      <point x="49" y="764"/>
      <point x="49" y="719" type="curve" smooth="yes"/>
      <point x="49" y="646"/>
      <point x="93" y="599"/>
    </contour>
  </outline>
</glyph>
<glyph name="uni2012" format="2">
  <advance width="485"/>
  <unicode hex="2012"/>
  <outline>
    <contour>
      <point x="29" y="292" type="line"/>
      <point x="456" y="292" type="line"/>
      <point x="456" y="427" type="line"/>
      <point x="29" y="427" type="line"/>
    </contour>
  </outline>
</glyph>
<glyph name="emdash" format="2">
  <advance width="971"/>
  <unicode hex="2014"/>
  <outline>
    <contour>
      <point x="28" y="202" type="line"/>
      <point x="943" y="202" type="line"/>
      <point x="943" y="337" type="line"/>
      <point x="28" y="337" type="line"/>
    </contour>
  </outline>
</glyph>
<glyph name="daggerdbl" format="2">
  <advance width="489"/>
  <unicode hex="2021"/>
  <outline>
    <contour>
      <point x="302" y="290" type="line"/>
      <point x="327" y="384" type="line"/>
      <point x="302" y="470" type="line"/>
      <point x="447" y="452" type="line"/>
      <point x="447" y="592" type="line"/>
      <point x="302" y="574" type="line"/>
      <point x="332" y="760" type="line"/>
      <point x="172" y="760" type="line"/>
      <point x="201" y="574" type="line"/>
      <point x="42" y="592" type="line"/>
      <point x="42" y="452" type="line"/>
      <point x="201" y="470" type="line"/>
      <point x="175" y="384" type="line"/>
      <point x="201" y="290" type="line"/>
      <point x="42" y="308" type="line"/>
      <point x="42" y="168" type="line"/>
      <point x="201" y="187" type="line"/>
      <point x="172" y="0" type="line"/>
      <point x="332" y="0" type="line"/>
      <point x="302" y="187" type="line"/>
      <point x="447" y="168" type="line"/>
      <point x="447" y="308" type="line"/>
    </contour>
  </outline>
</glyph>
<glyph name="tironiansignet" format="2">
  <advance width="582"/>
  <unicode hex="204A"/>
  <outline>
    <contour>
      <point x="513" y="0" type="line"/>
      <point x="513" y="553" type="line"/>
      <point x="42" y="553" type="line"/>
      <point x="42" y="426" type="line"/>
      <point x="386" y="426" type="line"/>
      <point x="386" y="0" type="line"/>
    </contour>
  </outline>
</glyph>
<glyph name="plussuperior" format="2">
  <advance width="380"/>
  <unicode hex="207A"/>
  <outline>
    <contour>
      <point x="147" y="293" type="line"/>
      <point x="231" y="293" type="line"/>
      <point x="231" y="406" type="line"/>
      <point x="345" y="406" type="line"/>
      <point x="345" y="490" type="line"/>
      <point x="231" y="490" type="line"/>
      <point x="231" y="604" type="line"/>
      <point x="147" y="604" type="line"/>
      <point x="147" y="490" type="line"/>
      <point x="34" y="490" type="line"/>
      <point x="34" y="406" type="line"/>
      <point x="147" y="406" type="line"/>
    </contour>
  </outline>
</glyph>
<glyph name="parenleftsuperior" format="2">
  <advance width="247"/>
  <unicode hex="207D"/>
  <outline>
    <contour>
      <point x="35" y="497" type="curve" smooth="yes"/>
      <point x="35" y="394"/>
      <point x="57" y="289"/>
      <point x="120" y="214" type="curve"/>
      <point x="220" y="214" type="line"/>
      <point x="165" y="292"/>
      <point x="143" y="398"/>
      <point x="143" y="498" type="curve" smooth="yes"/>
      <point x="143" y="599"/>
      <point x="165" y="705"/>
      <point x="221" y="785" type="curve"/>
      <point x="120" y="785" type="line"/>
      <point x="57" y="708"/>
      <point x="35" y="601"/>
    </contour>
  </outline>
</glyph>
<glyph name="parenrightsuperior" format="2">
  <advance width="247"/>
  <unicode hex="207E"/>
  <outline>
    <contour>
      <point x="212" y="502" type="curve" smooth="yes"/>
      <point x="212" y="605"/>
      <point x="191" y="710"/>
      <point x="127" y="785" type="curve"/>
      <point x="27" y="785" type="line"/>
      <point x="82" y="707"/>
      <point x="104" y="601"/>
      <point x="104" y="501" type="curve" smooth="yes"/>
      <point x="104" y="400"/>
      <point x="82" y="294"/>
      <point x="26" y="214" type="curve"/>
      <point x="127" y="214" type="line"/>
      <point x="191" y="291"/>
      <point x="212" y="398"/>
    </contour>
  </outline>
</glyph>
<glyph name="uni20A5" format="2">
  <advance width="789"/>
  <unicode hex="20A5"/>
  <anchor x="387" y="0" name="bottom"/>
  <anchor x="403" y="553" name="top"/>
  <anchor x="745" y="553" name="topright"/>
  <outline>
    <contour>
      <point x="600" y="666" type="line"/>
      <point x="498" y="666" type="line"/>
      <point x="238" y="-110" type="line"/>
      <point x="341" y="-110" type="line"/>
    </contour>
    <component base="m"/>
  </outline>
</glyph>
<glyph name="uni20A9" format="2">
  <advance width="700"/>
  <unicode hex="20A9"/>
  <outline>
    <contour>
      <point x="100" y="0" type="line"/>
      <point x="268" y="0" type="line"/>
      <point x="306" y="254" type="line"/>
      <point x="384" y="254" type="line"/>
      <point x="427" y="0" type="line"/>
      <point x="591" y="0" type="line"/>
      <point x="628" y="254" type="line"/>
      <point x="700" y="254" type="line"/>
      <point x="700" y="331" type="line"/>
      <point x="639" y="331" type="line"/>
      <point x="647" y="388" type="line"/>
      <point x="700" y="388" type="line"/>
      <point x="700" y="465" type="line"/>
      <point x="659" y="465" type="line"/>
      <point x="695" y="714" type="line"/>
      <point x="547" y="714" type="line"/>
      <point x="525" y="465" type="line"/>
      <point x="452" y="465" type="line"/>
      <point x="413" y="714" type="line"/>
      <point x="277" y="714" type="line"/>
      <point x="235" y="465" type="line"/>
      <point x="171" y="465" type="line"/>
      <point x="153" y="714" type="line"/>
      <point x="5" y="714" type="line"/>
      <point x="38" y="465" type="line"/>
      <point x="0" y="465" type="line"/>
      <point x="0" y="388" type="line"/>
      <point x="49" y="388" type="line"/>
      <point x="56" y="331" type="line"/>
      <point x="0" y="331" type="line"/>
      <point x="0" y="254" type="line"/>
      <point x="66" y="254" type="line"/>
    </contour>
    <contour>
      <point x="191" y="179" type="line"/>
      <point x="187" y="254" type="line"/>
      <point x="204" y="254" type="line"/>
    </contour>
    <contour>
      <point x="501" y="179" type="line"/>
      <point x="488" y="254" type="line"/>
      <point x="506" y="254" type="line"/>
    </contour>
    <contour>
      <point x="335" y="465" type="line"/>
      <point x="342" y="528" type="line"/>
      <point x="350" y="465" type="line"/>
    </contour>
    <contour>
      <point x="181" y="331" type="line"/>
      <point x="177" y="388" type="line"/>
      <point x="224" y="388" type="line"/>
      <point x="216" y="331" type="line"/>
    </contour>
    <contour>
      <point x="316" y="331" type="line"/>
      <point x="324" y="388" type="line"/>
      <point x="363" y="388" type="line"/>
      <point x="371" y="331" type="line"/>
    </contour>
    <contour>
      <point x="475" y="331" type="line"/>
      <point x="467" y="388" type="line"/>
      <point x="518" y="388" type="line"/>
      <point x="513" y="331" type="line"/>
    </contour>
  </outline>
</glyph>
<glyph name="addressedtothesubject" format="2">
  <advance width="735"/>
  <unicode hex="2101"/>
  <anchor x="597" y="393" name="top"/>
  <outline>
    <contour>
      <point x="183" y="722" type="curve" smooth="yes"/>
      <point x="126" y="722"/>
      <point x="82" y="708"/>
      <point x="36" y="683" type="curve"/>
      <point x="68" y="602" type="line"/>
      <point x="98" y="618"/>
      <point x="125" y="632"/>
      <point x="157" y="632" type="curve" smooth="yes"/>
      <point x="185" y="632"/>
      <point x="195" y="619"/>
      <point x="195" y="592" type="curve" smooth="yes"/>
      <point x="195" y="589" type="line"/>
      <point x="163" y="587" type="line" smooth="yes"/>
      <point x="82" y="582"/>
      <point x="19" y="561"/>
      <point x="19" y="472" type="curve" smooth="yes"/>
      <point x="19" y="413"/>
      <point x="50" y="356"/>
      <point x="112" y="356" type="curve" smooth="yes"/>
      <point x="162" y="356"/>
      <point x="193" y="381"/>
      <point x="209" y="419" type="curve"/>
      <point x="228" y="362" type="line"/>
      <point x="307" y="362" type="line"/>
      <point x="307" y="581" type="line" smooth="yes"/>
      <point x="307" y="671"/>
      <point x="259" y="722"/>
    </contour>
    <contour>
      <point x="195" y="522" type="line"/>
      <point x="195" y="511" type="line" smooth="yes"/>
      <point x="195" y="473"/>
      <point x="181" y="445"/>
      <point x="159" y="445" type="curve" smooth="yes"/>
      <point x="141" y="445"/>
      <point x="131" y="457"/>
      <point x="131" y="478" type="curve" smooth="yes"/>
      <point x="131" y="503"/>
      <point x="144" y="516"/>
      <point x="169" y="519" type="curve" smooth="yes"/>
    </contour>
    <contour>
      <point x="620" y="714" type="line"/>
      <point x="493" y="714" type="line"/>
      <point x="160" y="0" type="line"/>
      <point x="287" y="0" type="line"/>
    </contour>
    <contour>
      <point x="713" y="122" type="curve" smooth="yes"/>
      <point x="713" y="193"/>
      <point x="684" y="216"/>
      <point x="639" y="244" type="curve"/>
      <point x="584" y="272"/>
      <point x="581" y="280"/>
      <point x="581" y="294" type="curve" smooth="yes"/>
      <point x="581" y="307"/>
      <point x="588" y="311"/>
      <point x="601" y="311" type="curve" smooth="yes"/>
      <point x="627" y="311"/>
      <point x="650" y="299"/>
      <point x="682" y="282" type="curve"/>
      <point x="710" y="362" type="line"/>
      <point x="670" y="386"/>
      <point x="639" y="393"/>
      <point x="593" y="393" type="curve" smooth="yes"/>
      <point x="525" y="393"/>
      <point x="477" y="360"/>
      <point x="477" y="290" type="curve" smooth="yes"/>
      <point x="477" y="225"/>
      <point x="496" y="199"/>
      <point x="550" y="169" type="curve"/>
      <point x="608" y="133"/>
      <point x="612" y="128"/>
      <point x="612" y="109" type="curve" smooth="yes"/>
      <point x="612" y="94"/>
      <point x="605" y="84"/>
      <point x="582" y="84" type="curve" smooth="yes"/>
      <point x="556" y="84"/>
      <point x="513" y="93"/>
      <point x="478" y="115" type="curve"/>
      <point x="478" y="24" type="line"/>
      <point x="511" y="10"/>
      <point x="552" y="3"/>
      <point x="591" y="3" type="curve" smooth="yes"/>
      <point x="672" y="3"/>
      <point x="713" y="47"/>
    </contour>
  </outline>
</glyph>
<glyph name="response" format="2">
  <advance width="545"/>
  <unicode hex="211F"/>
  <anchor x="277" y="0" name="bottom"/>
  <anchor x="274" y="714" name="top"/>
  <anchor x="515" y="714" name="topright"/>
  <outline>
    <contour>
      <point x="334" y="757" type="line"/>
      <point x="121" y="-145" type="line"/>
      <point x="190" y="-145" type="line"/>
      <point x="415" y="805" type="line"/>
      <point x="182" y="866" type="line"/>
      <point x="164" y="797" type="line"/>
    </contour>
    <component base="R"/>
  </outline>
</glyph>
<glyph name="versicle" format="2">
  <advance width="560"/>
  <unicode hex="2123"/>
  <anchor x="273" y="0" name="bottom"/>
  <anchor x="277" y="714" name="top"/>
  <anchor x="532" y="714" name="topright"/>
  <outline>
    <contour>
      <point x="294" y="757" type="line"/>
      <point x="81" y="-145" type="line"/>
      <point x="150" y="-145" type="line"/>
      <point x="375" y="805" type="line"/>
      <point x="142" y="866" type="line"/>
      <point x="124" y="797" type="line"/>
    </contour>
    <component base="V"/>
  </outline>
</glyph>
<glyph name="uni2C66" format="2">
  <advance width="354"/>
  <unicode hex="2C66"/>
  <anchor x="205" y="-208" name="bottom"/>
  <anchor x="162" y="760" name="top"/>
  <anchor x="165" y="277" name="center"/>
  <anchor x="215" y="900" name="topright"/>
  <outline>
    <contour>
      <point x="101" y="-208" type="line"/>
      <point x="353" y="760" type="line"/>
      <point x="296" y="760" type="line"/>
      <point x="44" y="-208" type="line"/>
    </contour>
    <component base="t"/>
  </outline>
</glyph>
<glyph name="uni2C68" format="2">
  <advance width="562"/>
  <unicode hex="2C68"/>
  <anchor x="260" y="-203" name="bottom"/>
  <anchor x="128" y="760" name="top"/>
  <anchor x="259" y="277" name="center"/>
  <anchor x="475" y="760" name="topright"/>
  <outline>
    <contour>
      <point x="462" y="135" type="line"/>
      <point x="340" y="0" type="line"/>
      <point x="394" y="0" type="line"/>
      <point x="394" y="-203" type="line"/>
      <point x="551" y="-203" type="line"/>
      <point x="551" y="135" type="line"/>
    </contour>
    <component base="h"/>
  </outline>
</glyph>
<glyph name="uni2C69" format="2">
  <advance width="552"/>
  <unicode hex="2C69"/>
  <anchor x="292" y="-222" name="bottom"/>
  <anchor x="297" y="714" name="top"/>
  <anchor x="523" y="714" name="topright"/>
  <outline>
    <contour>
      <point x="573" y="146" type="line"/>
      <point x="473" y="146" type="line"/>
      <point x="408" y="20" type="line"/>
      <point x="408" y="-222" type="line"/>
      <point x="573" y="-222" type="line"/>
    </contour>
    <component base="K"/>
  </outline>
</glyph>
<glyph name="uni2E4D" format="2">
  <advance width="433"/>
  <unicode hex="2E4D"/>
  <anchor x="221" y="0" name="bottom"/>
  <anchor x="248" y="714" name="top"/>
  <outline>
    <contour>
      <point x="166" y="336" type="line"/>
      <point x="402" y="572" type="line"/>
      <point x="345" y="628" type="line"/>
      <point x="108" y="392" type="line"/>
    </contour>
    <component base="afii10020"/>
  </outline>
</glyph>
<glyph name="uniA642" format="2">
  <advance width="471"/>
  <unicode hex="A642"/>
  <outline>
    <contour>
      <point x="15" y="303" type="line"/>
      <point x="456" y="303" type="line"/>
      <point x="456" y="419" type="line"/>
      <point x="15" y="419" type="line"/>
    </contour>
    <component base="uniA640"/>
  </outline>
</glyph>
<glyph name="uniA643" format="2">
  <advance width="397"/>
  <unicode hex="A643"/>
  <outline>
    <contour>
      <point x="23" y="220" type="line"/>
      <point x="372" y="220" type="line"/>
      <point x="372" y="336" type="line"/>
      <point x="23" y="336" type="line"/>
    </contour>
    <component base="uniA641"/>
  </outline>
</glyph>
<glyph name="uniA65C" format="2">
  <advance width="858"/>
  <unicode hex="A65C"/>
  <outline>
    <contour>
      <point x="450" y="125" type="line"/>
      <point x="450" y="0" type="line"/>
      <point x="735" y="0" type="line"/>
      <point x="735" y="125" type="line"/>
    </contour>
    <component base="uniA656"/>
  </outline>
</glyph>
<glyph name="uniA662" format="2">
  <advance width="765"/>
  <unicode hex="A662"/>
  <anchor x="321" y="-222" name="bottom"/>
  <anchor x="321" y="714" name="top"/>
  <outline>
    <contour>
      <point x="752" y="714" type="line"/>
      <point x="383" y="714" type="line"/>
      <point x="383" y="0" type="line"/>
      <point x="553" y="0" type="line"/>
      <point x="553" y="567" type="line"/>
      <point x="752" y="567" type="line"/>
    </contour>
    <component base="afii10021"/>
  </outline>
</glyph>
<glyph name="uniA663" format="2">
  <advance width="683"/>
  <unicode hex="A663"/>
  <anchor x="290" y="-203" name="bottom"/>
  <anchor x="300" y="553" name="top"/>
  <outline>
    <contour>
      <point x="668" y="553" type="line"/>
      <point x="343" y="553" type="line"/>
      <point x="343" y="0" type="line"/>
      <point x="505" y="0" type="line"/>
      <point x="505" y="418" type="line"/>
      <point x="668" y="418" type="line"/>
    </contour>
    <component base="afii10069"/>
  </outline>
</glyph>
<glyph name="uniA665" format="2">
  <advance width="667"/>
  <unicode hex="A665"/>
  <anchor x="268" y="0" name="bottom"/>
  <anchor x="268" y="553" name="top"/>
  <outline>
    <contour>
      <point x="652" y="553" type="line"/>
      <point x="327" y="553" type="line"/>
      <point x="327" y="0" type="line"/>
      <point x="489" y="0" type="line"/>
      <point x="489" y="410" type="line"/>
      <point x="652" y="410" type="line"/>
    </contour>
    <component base="afii10077"/>
  </outline>
</glyph>
<glyph name="uniA666" format="2">
  <advance width="943"/>
  <unicode hex="A666"/>
  <anchor x="394" y="0" name="bottom"/>
  <anchor x="395" y="714" name="top"/>
  <anchor x="769" y="714" name="topright"/>
  <outline>
    <contour>
      <point x="930" y="714" type="line"/>
      <point x="640" y="714" type="line"/>
      <point x="731" y="567" type="line"/>
      <point x="930" y="567" type="line"/>
    </contour>
    <component base="M"/>
  </outline>
</glyph>
<glyph name="uniA667" format="2">
  <advance width="825"/>
  <unicode hex="A667"/>
  <anchor x="342" y="0" name="bottom"/>
  <anchor x="342" y="553" name="top"/>
  <outline>
    <contour>
      <point x="800" y="553" type="line"/>
      <point x="570" y="553" type="line"/>
      <point x="637" y="418" type="line"/>
      <point x="800" y="418" type="line"/>
    </contour>
    <component base="afii10078"/>
  </outline>
</glyph>
<glyph name="uniA672" format="2">
  <unicode hex="A672"/>
  <outline>
    <contour>
      <point x="-583" y="411" type="line"/>
      <point x="-301" y="411" type="line"/>
      <point x="-301" y="499" type="line"/>
      <point x="-583" y="499" type="line"/>
    </contour>
    <contour>
      <point x="-583" y="41" type="line"/>
      <point x="-301" y="41" type="line"/>
      <point x="-301" y="129" type="line"/>
      <point x="-583" y="129" type="line"/>
    </contour>
    <contour>
      <point x="-583" y="226" type="line"/>
      <point x="-301" y="226" type="line"/>
      <point x="-301" y="314" type="line"/>
      <point x="-583" y="314" type="line"/>
    </contour>
    <contour>
      <point x="138" y="-54" type="line"/>
      <point x="138" y="-336" type="line"/>
      <point x="226" y="-336" type="line"/>
      <point x="226" y="-54" type="line"/>
    </contour>
    <contour>
      <point x="-231" y="-54" type="line"/>
      <point x="-231" y="-336" type="line"/>
      <point x="-143" y="-336" type="line"/>
      <point x="-143" y="-54" type="line"/>
    </contour>
    <contour>
      <point x="-47" y="-54" type="line"/>
      <point x="-47" y="-336" type="line"/>
      <point x="41" y="-336" type="line"/>
      <point x="41" y="-54" type="line"/>
    </contour>
    <contour>
      <point x="294" y="411" type="line"/>
      <point x="576" y="411" type="line"/>
      <point x="576" y="499" type="line"/>
      <point x="294" y="499" type="line"/>
    </contour>
    <contour>
      <point x="294" y="41" type="line"/>
      <point x="576" y="41" type="line"/>
      <point x="576" y="129" type="line"/>
      <point x="294" y="129" type="line"/>
    </contour>
    <contour>
      <point x="294" y="226" type="line"/>
      <point x="576" y="226" type="line"/>
      <point x="576" y="314" type="line"/>
      <point x="294" y="314" type="line"/>
    </contour>
    <contour>
      <point x="40" y="786" type="line"/>
      <point x="40" y="905" type="line"/>
      <point x="-50" y="905" type="line"/>
      <point x="-50" y="786" type="line"/>
      <point x="-146" y="786" type="line"/>
      <point x="-146" y="698" type="line"/>
      <point x="-50" y="698" type="line"/>
      <point x="-50" y="581" type="line"/>
      <point x="40" y="581" type="line"/>
      <point x="40" y="698" type="line"/>
      <point x="136" y="698" type="line"/>
      <point x="136" y="786" type="line"/>
    </contour>
  </outline>
</glyph>
<glyph name="uniA680" format="2">
  <advance width="652"/>
  <unicode hex="A680"/>
  <anchor x="321" y="-222" name="bottom"/>
  <anchor x="321" y="714" name="top"/>
  <outline>
    <contour>
      <point x="161" y="920" type="line"/>
      <point x="161" y="636" type="line"/>
      <point x="317" y="636" type="line"/>
      <point x="317" y="920" type="line"/>
    </contour>
    <component base="afii10021"/>
  </outline>
</glyph>
<glyph name="uniA684" format="2">
  <advance width="1041"/>
  <unicode hex="A684"/>
  <anchor x="224" y="0" name="bottom_1"/>
  <anchor x="784" y="0" name="bottom_2"/>
  <anchor x="229" y="714" name="top_1"/>
  <anchor x="793" y="714" name="top_2"/>
  <outline>
    <contour>
      <point x="300" y="440" type="line"/>
      <point x="300" y="305" type="line"/>
      <point x="578" y="305" type="line"/>
      <point x="578" y="440" type="line"/>
    </contour>
    <component base="afii10025"/>
    <component base="afii10028" xOffset="498"/>
  </outline>
</glyph>
<glyph name="uniA68D" format="2">
  <advance width="449"/>
  <unicode hex="A68D"/>
  <outline>
    <contour>
      <point x="144" y="175" type="line" smooth="yes"/>
      <point x="144" y="44"/>
      <point x="203" y="-10"/>
      <point x="293" y="-10" type="curve" smooth="yes"/>
      <point x="333" y="-10"/>
      <point x="375" y="-4"/>
      <point x="393" y="2" type="curve"/>
      <point x="393" y="139" type="line"/>
      <point x="377" y="133"/>
      <point x="362" y="130"/>
      <point x="349" y="130" type="curve" smooth="yes"/>
      <point x="320" y="130"/>
      <point x="307" y="151"/>
      <point x="307" y="193" type="curve" smooth="yes"/>
      <point x="307" y="418" type="line"/>
      <point x="434" y="418" type="line"/>
      <point x="434" y="553" type="line"/>
      <point x="15" y="553" type="line"/>
      <point x="15" y="418" type="line"/>
      <point x="144" y="418" type="line"/>
    </contour>
  </outline>
</glyph>
<glyph name="uniA69A" format="2">
  <advance width="627"/>
  <unicode hex="A69A"/>
  <anchor x="321" y="0" name="bottom"/>
  <anchor x="321" y="725" name="top"/>
  <outline>
    <contour>
      <point x="269" y="661" type="line"/>
      <point x="269" y="29" type="line"/>
      <point x="358" y="29" type="line"/>
      <point x="358" y="661" type="line"/>
    </contour>
    <component base="uni04E8"/>
  </outline>
</glyph>
<glyph name="uniA69E" format="2">
  <unicode hex="A69E"/>
  <outline>
    <contour>
      <point x="49" y="759" type="line"/>
      <point x="-49" y="759" type="line"/>
      <point x="-49" y="626" type="line"/>
      <point x="-165" y="617"/>
      <point x="-211" y="547"/>
      <point x="-211" y="448" type="curve" smooth="yes"/>
      <point x="-211" y="354"/>
      <point x="-156" y="284"/>
      <point x="-47" y="272" type="curve"/>
      <point x="-47" y="119" type="line"/>
      <point x="49" y="119" type="line"/>
      <point x="49" y="272" type="line"/>
      <point x="163" y="282"/>
      <point x="212" y="354"/>
      <point x="212" y="448" type="curve" smooth="yes"/>
      <point x="212" y="543"/>
      <point x="159" y="614"/>
      <point x="49" y="626" type="curve"/>
    </contour>
    <contour>
      <point x="-49" y="542" type="curve"/>
      <point x="-49" y="354" type="line"/>
      <point x="-77" y="357"/>
      <point x="-98" y="395"/>
      <point x="-98" y="448" type="curve" smooth="yes"/>
      <point x="-98" y="501"/>
      <point x="-73" y="539"/>
    </contour>
    <contour>
      <point x="49" y="542" type="line"/>
      <point x="75" y="539"/>
      <point x="99" y="501"/>
      <point x="99" y="448" type="curve" smooth="yes"/>
      <point x="99" y="395"/>
      <point x="77" y="357"/>
      <point x="49" y="354" type="curve"/>
    </contour>
  </outline>
</glyph>
<glyph name="uniA744" format="2">
  <advance width="542"/>
  <unicode hex="A744"/>
  <anchor x="292" y="0" name="bottom"/>
  <anchor x="297" y="714" name="top"/>
  <anchor x="523" y="714" name="topright"/>
  <outline>
    <contour>
      <point x="242" y="178" type="line"/>
      <point x="295" y="71" type="line"/>
      <point x="551" y="196" type="line"/>
      <point x="498" y="303" type="line"/>
    </contour>
    <component base="uniA740"/>
  </outline>
</glyph>
<glyph name="uniA748" format="2">
  <advance width="418"/>
  <unicode hex="A748"/>
  <anchor x="232" y="0" name="bottom"/>
  <anchor x="209" y="357" name="center"/>
  <anchor x="143" y="714" name="top"/>
  <anchor x="281" y="714" name="topright"/>
  <outline>
    <contour>
      <point x="5" y="516" type="line"/>
      <point x="316" y="516" type="line"/>
      <point x="316" y="632" type="line"/>
      <point x="5" y="632" type="line"/>
    </contour>
    <component base="L"/>
  </outline>
</glyph>
<glyph name="uniA749" format="2">
  <advance width="259"/>
  <unicode hex="A749"/>
  <anchor x="129" y="0" name="bottom"/>
  <anchor x="130" y="277" name="center"/>
  <anchor x="129" y="760" name="top"/>
  <anchor x="228" y="760" name="topright"/>
  <outline>
    <contour>
      <point x="255" y="669" type="line"/>
      <point x="3" y="669" type="line"/>
      <point x="3" y="553" type="line"/>
      <point x="255" y="553" type="line"/>
    </contour>
    <component base="l"/>
  </outline>
</glyph>
<glyph name="uniA74B" format="2">
  <advance width="505"/>
  <unicode hex="A74B"/>
  <anchor x="261" y="0" name="bottom"/>
  <anchor x="262" y="277" name="center"/>
  <anchor x="262" y="553" name="top"/>
  <anchor x="496" y="553" name="topright"/>
  <outline>
    <contour>
      <point x="0" y="219" type="line"/>
      <point x="525" y="219" type="line"/>
      <point x="525" y="335" type="line"/>
      <point x="0" y="335" type="line"/>
    </contour>
    <component base="o" xOffset="10"/>
  </outline>
</glyph>
<glyph name="uniA750" format="2">
  <advance width="510"/>
  <unicode hex="A750"/>
  <anchor x="254" y="0" name="bottom"/>
  <anchor x="274" y="714" name="top"/>
  <anchor x="490" y="714" name="topright"/>
  <outline>
    <contour>
      <point x="16" y="66" type="line"/>
      <point x="337" y="66" type="line"/>
      <point x="337" y="182" type="line"/>
      <point x="16" y="182" type="line"/>
    </contour>
    <component base="P"/>
  </outline>
</glyph>
<glyph name="uniA751" format="2">
  <advance width="512"/>
  <unicode hex="A751"/>
  <anchor x="127" y="-240" name="bottom"/>
  <anchor x="283" y="553" name="top"/>
  <anchor x="493" y="553" name="topright"/>
  <outline>
    <contour>
      <point x="0" y="-177" type="line"/>
      <point x="357" y="-177" type="line"/>
      <point x="357" y="-61" type="line"/>
      <point x="0" y="-61" type="line"/>
    </contour>
    <component base="p"/>
  </outline>
</glyph>
<glyph name="uniA754" format="2">
  <advance width="755"/>
  <unicode hex="A754"/>
  <anchor x="499" y="0" name="bottom"/>
  <anchor x="519" y="714" name="top"/>
  <anchor x="735" y="714" name="topright"/>
  <outline>
    <contour>
      <point x="314" y="237" type="curve" smooth="yes"/>
      <point x="424" y="237" type="line"/>
      <point x="424" y="381" type="line"/>
      <point x="340" y="381" type="line" smooth="yes"/>
      <point x="264" y="381"/>
      <point x="236" y="404"/>
      <point x="236" y="491" type="curve" smooth="yes"/>
      <point x="236" y="530" type="line" smooth="yes"/>
      <point x="236" y="670"/>
      <point x="192" y="723"/>
      <point x="73" y="723" type="curve" smooth="yes"/>
      <point x="49" y="723"/>
      <point x="25" y="718"/>
      <point x="5" y="712" type="curve"/>
      <point x="5" y="576" type="line"/>
      <point x="11" y="578"/>
      <point x="20" y="579"/>
      <point x="30" y="579" type="curve" smooth="yes"/>
      <point x="58" y="579"/>
      <point x="66" y="561"/>
      <point x="66" y="534" type="curve" smooth="yes"/>
      <point x="66" y="480" type="line" smooth="yes"/>
      <point x="66" y="330"/>
      <point x="134" y="237"/>
    </contour>
    <component base="P" xOffset="245"/>
  </outline>
</glyph>
<glyph name="uniA75C" format="2">
  <advance width="657"/>
  <unicode hex="A75C"/>
  <outline>
    <contour>
      <point x="648" y="123" type="line"/>
      <point x="648" y="269" type="line"/>
      <point x="278" y="269" type="line"/>
      <point x="278" y="280" type="line"/>
      <point x="309" y="310" type="line" smooth="yes"/>
      <point x="384" y="381"/>
      <point x="420" y="452"/>
      <point x="420" y="540" type="curve" smooth="yes"/>
      <point x="420" y="650"/>
      <point x="354" y="725"/>
      <point x="239" y="725" type="curve" smooth="yes"/>
      <point x="154" y="725"/>
      <point x="79" y="686"/>
      <point x="19" y="616" type="curve"/>
      <point x="97" y="501" type="line"/>
      <point x="140" y="552"/>
      <point x="181" y="578"/>
      <point x="217" y="578" type="curve" smooth="yes"/>
      <point x="237" y="578"/>
      <point x="252" y="553"/>
      <point x="252" y="529" type="curve" smooth="yes"/>
      <point x="252" y="471"/>
      <point x="228" y="433"/>
      <point x="153" y="363" type="curve" smooth="yes"/>
      <point x="34" y="252" type="line"/>
      <point x="34" y="123" type="line"/>
    </contour>
    <contour>
      <point x="578" y="0" type="line"/>
      <point x="578" y="375" type="line"/>
      <point x="407" y="375" type="line"/>
      <point x="407" y="0" type="line"/>
    </contour>
  </outline>
</glyph>
<glyph name="uniA75E" format="2">
  <advance width="560"/>
  <unicode hex="A75E"/>
  <anchor x="273" y="0" name="bottom"/>
  <anchor x="277" y="714" name="top"/>
  <anchor x="532" y="714" name="topright"/>
  <outline>
    <contour>
      <point x="250" y="723" type="line"/>
      <point x="83" y="-9" type="line"/>
      <point x="153" y="-9" type="line"/>
      <point x="323" y="723" type="line"/>
    </contour>
    <component base="V"/>
  </outline>
</glyph>
<glyph name="uniA767" format="2">
  <advance width="512"/>
  <unicode hex="A767"/>
  <anchor x="256" y="-240" name="bottom"/>
  <anchor x="256" y="760" name="top"/>
  <outline>
    <contour>
      <point x="357" y="-61" type="line"/>
      <point x="0" y="-61" type="line"/>
      <point x="0" y="-177" type="line"/>
      <point x="357" y="-177" type="line"/>
    </contour>
    <component base="thorn"/>
  </outline>
</glyph>
<glyph name="uniA768" format="2">
  <advance width="574"/>
  <unicode hex="A768"/>
  <outline>
    <contour>
      <point x="260" y="-114" type="line"/>
      <point x="260" y="0" type="line"/>
      <point x="574" y="714" type="line"/>
      <point x="387" y="714" type="line"/>
      <point x="331" y="554" type="line" smooth="yes"/>
      <point x="307" y="485"/>
      <point x="273" y="381"/>
      <point x="260" y="325" type="curve"/>
      <point x="254" y="325" type="line"/>
      <point x="257" y="369"/>
      <point x="260" y="464"/>
      <point x="260" y="506" type="curve" smooth="yes"/>
      <point x="260" y="588" type="line"/>
      <point x="315" y="623" type="line"/>
      <point x="315" y="714" type="line"/>
      <point x="24" y="714" type="line"/>
      <point x="24" y="623" type="line"/>
      <point x="89" y="588" type="line"/>
      <point x="89" y="-114" type="line"/>
      <point x="24" y="-149" type="line"/>
      <point x="24" y="-240" type="line"/>
      <point x="325" y="-240" type="line"/>
      <point x="325" y="-149" type="line"/>
    </contour>
  </outline>
</glyph>
<glyph name="uniA771" format="2">
  <advance width="711"/>
  <unicode hex="A771"/>
  <anchor x="251" y="0" name="bottom"/>
  <anchor x="256" y="277" name="center"/>
  <anchor x="237" y="760" name="top"/>
  <anchor x="484" y="760" name="topright"/>
  <outline>
    <contour>
      <point x="445" y="0" type="line"/>
      <point x="706" y="0" type="line"/>
      <point x="706" y="135" type="line"/>
      <point x="445" y="135" type="line"/>
    </contour>
    <contour>
      <point x="563" y="298" type="line"/>
      <point x="437" y="-157" type="line"/>
      <point x="546" y="-157" type="line"/>
      <point x="671" y="298" type="line"/>
    </contour>
    <component base="d"/>
  </outline>
</glyph>
<glyph name="uniA772" format="2">
  <advance width="471"/>
  <unicode hex="A772"/>
  <anchor x="129" y="0" name="bottom"/>
  <anchor x="130" y="277" name="center"/>
  <anchor x="129" y="760" name="top"/>
  <anchor x="228" y="760" name="topright"/>
  <outline>
    <contour>
      <point x="205" y="0" type="line"/>
      <point x="466" y="0" type="line"/>
      <point x="466" y="135" type="line"/>
      <point x="205" y="135" type="line"/>
    </contour>
    <contour>
      <point x="323" y="298" type="line"/>
      <point x="197" y="-157" type="line"/>
      <point x="306" y="-157" type="line"/>
      <point x="431" y="298" type="line"/>
    </contour>
    <component base="l"/>
  </outline>
</glyph>
<glyph name="uniA773" format="2">
  <advance width="987"/>
  <unicode hex="A773"/>
  <anchor x="387" y="0" name="bottom"/>
  <anchor x="403" y="553" name="top"/>
  <anchor x="745" y="553" name="topright"/>
  <outline>
    <contour>
      <point x="721" y="0" type="line"/>
      <point x="982" y="0" type="line"/>
      <point x="982" y="135" type="line"/>
      <point x="721" y="135" type="line"/>
    </contour>
    <contour>
      <point x="839" y="298" type="line"/>
      <point x="713" y="-157" type="line"/>
      <point x="822" y="-157" type="line"/>
      <point x="947" y="298" type="line"/>
    </contour>
    <component base="m"/>
  </outline>
</glyph>
<glyph name="uniA776" format="2">
  <advance width="681"/>
  <unicode hex="A776"/>
  <anchor x="239" y="0" name="bottom"/>
  <anchor x="239" y="553" name="top"/>
  <outline>
    <contour>
      <point x="415" y="0" type="line"/>
      <point x="676" y="0" type="line"/>
      <point x="676" y="135" type="line"/>
      <point x="415" y="135" type="line"/>
    </contour>
    <contour>
      <point x="533" y="298" type="line"/>
      <point x="407" y="-157" type="line"/>
      <point x="516" y="-157" type="line"/>
      <point x="641" y="298" type="line"/>
    </contour>
    <component base="uni0280"/>
  </outline>
</glyph>
<glyph name="uniA791" format="2">
  <advance width="552"/>
  <unicode hex="A791"/>
  <anchor x="259" y="0" name="bottom"/>
  <anchor x="269" y="553" name="top"/>
  <anchor x="490" y="553" name="topright"/>
  <outline>
    <contour>
      <point x="383" y="-7" type="line"/>
      <point x="383" y="-203" type="line"/>
      <point x="540" y="-203" type="line"/>
      <point x="540" y="135" type="line"/>
      <point x="471" y="135" type="line"/>
    </contour>
    <component base="n"/>
  </outline>
</glyph>
<glyph name="uniA799" format="2">
  <advance width="323"/>
  <unicode hex="A799"/>
  <anchor x="147" y="0" name="bottom"/>
  <anchor x="214" y="765" name="top"/>
  <anchor x="339" y="765" name="topright"/>
  <outline>
    <contour>
      <point x="318" y="336" type="line"/>
      <point x="8" y="336" type="line"/>
      <point x="8" y="228" type="line"/>
      <point x="318" y="228" type="line"/>
    </contour>
    <component base="f"/>
  </outline>
</glyph>
<glyph name="uniA7A1" format="2">
  <advance width="512"/>
  <unicode hex="A7A1"/>
  <anchor x="225" y="-240" name="bottom"/>
  <anchor x="265" y="553" name="top"/>
  <anchor x="481" y="553" name="topright"/>
  <outline>
    <contour>
      <point x="3" y="285" type="line"/>
      <point x="3" y="169" type="line"/>
      <point x="511" y="281" type="line"/>
      <point x="511" y="397" type="line"/>
    </contour>
    <component base="g"/>
  </outline>
</glyph>
<glyph name="uniA7A4" format="2">
  <advance width="642"/>
  <unicode hex="A7A4"/>
  <anchor x="321" y="0" name="bottom"/>
  <anchor x="321" y="714" name="top"/>
  <anchor x="623" y="714" name="topright"/>
  <outline>
    <contour>
      <point x="0" y="329" type="line"/>
      <point x="0" y="223" type="line"/>
      <point x="643" y="397" type="line"/>
      <point x="643" y="503" type="line"/>
    </contour>
    <component base="N"/>
  </outline>
</glyph>
<glyph name="uniA7A5" format="2">
  <advance width="529"/>
  <unicode hex="A7A5"/>
  <anchor x="259" y="0" name="bottom"/>
  <anchor x="269" y="553" name="top"/>
  <anchor x="490" y="553" name="topright"/>
  <outline>
    <contour>
      <point x="3" y="247" type="line"/>
      <point x="3" y="131" type="line"/>
      <point x="526" y="251" type="line"/>
      <point x="526" y="367" type="line"/>
    </contour>
    <component base="n"/>
  </outline>
</glyph>
<glyph name="uniA7AE" format="2">
  <advance width="493"/>
  <unicode hex="A7AE"/>
  <anchor x="247" y="0" name="bottom"/>
  <anchor x="247" y="714" name="top"/>
  <outline>
    <contour>
      <point x="469" y="714" type="line"/>
      <point x="24" y="714" type="line"/>
      <point x="24" y="623" type="line"/>
      <point x="161" y="588" type="line"/>
      <point x="161" y="126" type="line"/>
      <point x="24" y="91" type="line"/>
      <point x="24" y="0" type="line"/>
      <point x="469" y="0" type="line"/>
      <point x="469" y="91" type="line"/>
      <point x="331" y="126" type="line"/>
      <point x="331" y="588" type="line"/>
      <point x="469" y="623" type="line"/>
    </contour>
  </outline>
</glyph>
<glyph name="uniA7B8" format="2">
  <advance width="575"/>
  <unicode hex="A7B8"/>
  <anchor x="284" y="0" name="bottom"/>
  <anchor x="288" y="714" name="top"/>
  <anchor x="556" y="714" name="topright"/>
  <outline>
    <contour>
      <point x="112" y="-60" type="line"/>
      <point x="571" y="712" type="line"/>
      <point x="494" y="756" type="line"/>
      <point x="35" y="-16" type="line"/>
    </contour>
    <component base="U"/>
  </outline>
</glyph>
<glyph name="uniA7B9" format="2">
  <advance width="517"/>
  <unicode hex="A7B9"/>
  <anchor x="257" y="0" name="bottom"/>
  <anchor x="259" y="553" name="top"/>
  <anchor x="489" y="553" name="topright"/>
  <outline>
    <contour>
      <point x="121" y="-63" type="line"/>
      <point x="489" y="555" type="line"/>
      <point x="417" y="598" type="line"/>
      <point x="47" y="-22" type="line"/>
    </contour>
    <component base="u"/>
  </outline>
</glyph>
<glyph name="uniA7C8" format="2">
  <advance width="512"/>
  <unicode hex="A7C8"/>
  <anchor x="251" y="0" name="bottom"/>
  <anchor x="256" y="277" name="center"/>
  <anchor x="237" y="760" name="top"/>
  <anchor x="484" y="760" name="topright"/>
  <outline>
    <contour>
      <point x="114" y="233" type="line"/>
      <point x="379" y="233" type="line"/>
      <point x="379" y="318" type="line"/>
      <point x="114" y="318" type="line"/>
    </contour>
    <component base="d"/>
  </outline>
</glyph>
<glyph name="uniA7CA" format="2">
  <advance width="389"/>
  <unicode hex="A7CA"/>
  <anchor x="181" y="0" name="bottom"/>
  <anchor x="200" y="553" name="top"/>
  <anchor x="362" y="553" name="topright"/>
  <outline>
    <contour>
      <point x="4" y="225" type="line"/>
      <point x="387" y="225" type="line"/>
      <point x="387" y="310" type="line"/>
      <point x="4" y="310" type="line"/>
    </contour>
    <component base="s"/>
  </outline>
</glyph>
<glyph name="uniAB30" format="2">
  <advance width="538"/>
  <unicode hex="AB30"/>
  <anchor x="256" y="0" name="bottom"/>
  <anchor x="256" y="553" name="top"/>
  <outline>
    <contour>
      <point x="3" y="336" type="line"/>
      <point x="3" y="220" type="line"/>
      <point x="524" y="220" type="line"/>
      <point x="524" y="336" type="line"/>
    </contour>
    <component base="uni0251"/>
  </outline>
</glyph>
<glyph name="uniAB39" format="2">
  <advance width="454"/>
  <unicode hex="AB39"/>
  <anchor x="229" y="0" name="bottom"/>
  <anchor x="230" y="277" name="center"/>
  <anchor x="229" y="760" name="top"/>
  <anchor x="328" y="760" name="topright"/>
  <outline>
    <contour>
      <point x="227" y="185" type="curve" smooth="yes"/>
      <point x="378" y="185"/>
      <point x="463" y="276"/>
      <point x="463" y="395" type="curve" smooth="yes"/>
      <point x="463" y="513"/>
      <point x="377" y="605"/>
      <point x="227" y="605" type="curve" smooth="yes"/>
      <point x="77" y="605"/>
      <point x="-9" y="513"/>
      <point x="-9" y="395" type="curve" smooth="yes"/>
      <point x="-9" y="276"/>
      <point x="76" y="185"/>
    </contour>
    <contour>
      <point x="227" y="269" type="curve" smooth="yes"/>
      <point x="123" y="269"/>
      <point x="78" y="325"/>
      <point x="78" y="395" type="curve" smooth="yes"/>
      <point x="78" y="465"/>
      <point x="123" y="521"/>
      <point x="227" y="521" type="curve" smooth="yes"/>
      <point x="331" y="521"/>
      <point x="376" y="465"/>
      <point x="376" y="395" type="curve" smooth="yes"/>
      <point x="376" y="325"/>
      <point x="331" y="269"/>
    </contour>
    <component base="l" xOffset="100"/>
  </outline>
</glyph>
<glyph name="uniAB42" format="2">
  <advance width="751"/>
  <unicode hex="AB42"/>
  <anchor x="376" y="551" name="bottom"/>
  <anchor x="376" y="-2" name="top"/>
  <outline>
    <contour>
      <point x="328" y="321" type="line"/>
      <point x="328" y="215" type="line"/>
      <point x="694" y="215" type="line"/>
      <point x="694" y="321" type="line"/>
    </contour>
    <component base="oe" xScale="-1" yScale="-1" xOffset="750" yOffset="551"/>
  </outline>
</glyph>
<glyph name="uniAB44" format="2">
  <advance width="896"/>
  <unicode hex="AB44"/>
  <outline>
    <contour>
      <point x="536" y="-57" type="line"/>
      <point x="797" y="571" type="line"/>
      <point x="731" y="598" type="line"/>
      <point x="470" y="-30" type="line"/>
    </contour>
    <component base="uniAB43"/>
  </outline>
</glyph>
<glyph name="uniAB60" format="2">
  <advance width="718"/>
  <unicode hex="AB60"/>
  <outline>
    <contour>
      <point x="299" y="0" type="line"/>
      <point x="497" y="0" type="line" smooth="yes"/>
      <point x="624" y="0"/>
      <point x="696" y="56"/>
      <point x="696" y="183" type="curve" smooth="yes"/>
      <point x="696" y="304"/>
      <point x="625" y="354"/>
      <point x="480" y="354" type="curve" smooth="yes"/>
      <point x="462" y="354" type="line"/>
      <point x="462" y="553" type="line"/>
      <point x="299" y="553" type="line"/>
    </contour>
    <contour>
      <point x="47" y="0" type="line"/>
      <point x="210" y="0" type="line"/>
      <point x="210" y="553" type="line"/>
      <point x="47" y="553" type="line"/>
    </contour>
    <contour>
      <point x="462" y="120" type="line"/>
      <point x="462" y="234" type="line"/>
      <point x="484" y="234" type="line" smooth="yes"/>
      <point x="520" y="234"/>
      <point x="534" y="213"/>
      <point x="534" y="175" type="curve" smooth="yes"/>
      <point x="534" y="140"/>
      <point x="515" y="120"/>
      <point x="486" y="120" type="curve" smooth="yes"/>
    </contour>
  </outline>
</glyph>
<glyph name="uniAB61" format="2">
  <advance width="716"/>
  <unicode hex="AB61"/>
  <anchor x="500" y="0" name="bottom"/>
  <anchor x="486" y="553" name="top"/>
  <anchor x="710" y="553" name="topright"/>
  <outline>
    <contour>
      <point x="316" y="218" type="line"/>
      <point x="317" y="346" type="line"/>
      <point x="215" y="346" type="line"/>
      <point x="215" y="550" type="line"/>
      <point x="50" y="550" type="line"/>
      <point x="50" y="0" type="line"/>
      <point x="215" y="0" type="line"/>
      <point x="215" y="218" type="line"/>
    </contour>
    <component base="e" xOffset="245"/>
  </outline>
</glyph>
<glyph name="uniFE20" format="2">
  <unicode hex="FE20"/>
  <outline>
    <contour>
      <point x="-311" y="587" type="curve"/>
      <point x="-209" y="587" type="line"/>
      <point x="-167" y="654"/>
      <point x="-99" y="678"/>
      <point x="1" y="678" type="curve"/>
      <point x="5" y="678" type="line"/>
      <point x="5" y="789" type="line"/>
      <point x="1" y="789" type="line" smooth="yes"/>
      <point x="-151" y="789"/>
      <point x="-259" y="729"/>
    </contour>
  </outline>
</glyph>
<glyph name="uniFE21" format="2">
  <unicode hex="FE21"/>
  <outline>
    <contour>
      <point x="-1" y="789" type="curve"/>
      <point x="-5" y="789" type="line"/>
      <point x="-5" y="678" type="line"/>
      <point x="-1" y="678" type="line" smooth="yes"/>
      <point x="122" y="678"/>
      <point x="185" y="644"/>
      <point x="217" y="587" type="curve"/>
      <point x="318" y="587" type="line"/>
      <point x="289" y="714"/>
      <point x="191" y="789"/>
    </contour>
  </outline>
</glyph>
<glyph name="uniFE22" format="2">
  <unicode hex="FE22"/>
  <outline>
    <contour>
      <point x="6" y="631" type="curve"/>
      <point x="6" y="748" type="line"/>
      <point x="-47" y="762"/>
      <point x="-105" y="771"/>
      <point x="-175" y="771" type="curve" smooth="yes"/>
      <point x="-253" y="771"/>
      <point x="-309" y="717"/>
      <point x="-313" y="607" type="curve"/>
      <point x="-232" y="607" type="line"/>
      <point x="-222" y="648"/>
      <point x="-196" y="657"/>
      <point x="-166" y="657" type="curve" smooth="yes"/>
      <point x="-115" y="657"/>
      <point x="-61" y="648"/>
    </contour>
  </outline>
</glyph>
<glyph name="uniFE23" format="2">
  <unicode hex="FE23"/>
  <outline>
    <contour>
      <point x="0" y="748" type="curve"/>
      <point x="0" y="631" type="line"/>
      <point x="55" y="619"/>
      <point x="116" y="608"/>
      <point x="180" y="608" type="curve" smooth="yes"/>
      <point x="250" y="608"/>
      <point x="314" y="662"/>
      <point x="320" y="771" type="curve"/>
      <point x="239" y="771" type="line"/>
      <point x="230" y="734"/>
      <point x="202" y="722"/>
      <point x="166" y="722" type="curve" smooth="yes"/>
      <point x="121" y="722"/>
      <point x="65" y="733"/>
    </contour>
  </outline>
</glyph>
<glyph name="uniFE2E" format="2">
  <unicode hex="FE2E"/>
  <outline>
    <contour>
      <point x="-11" y="601" type="curve"/>
      <point x="142" y="601" type="line"/>
      <point x="142" y="716" type="line"/>
      <point x="-61" y="716" type="line" smooth="yes"/>
      <point x="-119" y="716"/>
      <point x="-141" y="683"/>
      <point x="-141" y="634" type="curve" smooth="yes"/>
      <point x="-141" y="598"/>
      <point x="-119" y="559"/>
      <point x="-76" y="559" type="curve" smooth="yes"/>
      <point x="-40" y="559"/>
      <point x="-16" y="570"/>
    </contour>
  </outline>
</glyph>
<glyph name="uniFE2F" format="2">
  <unicode hex="FE2F"/>
  <outline>
    <contour>
      <point x="-142" y="601" type="line"/>
      <point x="61" y="601" type="line" smooth="yes"/>
      <point x="128" y="601"/>
      <point x="142" y="644"/>
      <point x="142" y="685" type="curve" smooth="yes"/>
      <point x="142" y="730"/>
      <point x="121" y="758"/>
      <point x="76" y="758" type="curve" smooth="yes"/>
      <point x="42" y="758"/>
      <point x="15" y="742"/>
      <point x="12" y="716" type="curve"/>
      <point x="-142" y="716" type="line"/>
    </contour>
  </outline>
</glyph>
<glyph name="uni02E5_uni02E6_uni02E8" format="2">
  <advance width="526"/>
  <outline>
    <contour>
      <point x="386" y="0" type="line"/>
      <point x="450" y="0" type="line"/>
      <point x="450" y="688" type="line"/>
      <point x="386" y="688" type="line"/>
      <point x="386" y="262" type="line"/>
      <point x="282" y="489" type="line"/>
      <point x="76" y="688" type="line"/>
      <point x="37" y="636" type="line"/>
      <point x="231" y="446" type="line"/>
      <point x="386" y="115" type="line"/>
    </contour>
  </outline>
</glyph>
<glyph name="uni02E6_uni02E6_uni02E8" format="2">
  <advance width="526"/>
  <outline>
    <contour>
      <point x="386" y="0" type="line"/>
      <point x="450" y="0" type="line"/>
      <point x="450" y="688" type="line"/>
      <point x="386" y="688" type="line"/>
      <point x="386" y="295" type="line"/>
      <point x="257" y="552" type="line"/>
      <point x="76" y="552" type="line"/>
      <point x="76" y="486" type="line"/>
      <point x="219" y="486" type="line"/>
      <point x="386" y="151" type="line"/>
    </contour>
  </outline>
</glyph>
<glyph name="uni02E6_uni02E9_uni02E7" format="2">
  <advance width="526"/>
  <outline>
    <contour>
      <point x="231" y="0" type="line"/>
      <point x="386" y="320" type="line"/>
      <point x="386" y="0" type="line"/>
      <point x="450" y="0" type="line"/>
      <point x="450" y="688" type="line"/>
      <point x="386" y="688" type="line"/>
      <point x="386" y="477" type="line"/>
      <point x="243" y="173" type="line"/>
      <point x="85" y="652" type="line"/>
      <point x="25" y="630" type="line"/>
    </contour>
  </outline>
</glyph>
<glyph name="uni03D0.alt" format="2">
  <advance width="530"/>
  <anchor x="265" y="-10" name="bottom"/>
  <anchor x="265" y="765" name="top"/>
  <outline>
    <contour>
      <point x="266" y="765" type="curve" smooth="yes"/>
      <point x="129" y="765"/>
      <point x="47" y="681"/>
      <point x="47" y="535" type="curve" smooth="yes"/>
      <point x="47" y="224" type="line" smooth="yes"/>
      <point x="47" y="61"/>
      <point x="135" y="-10"/>
      <point x="272" y="-10" type="curve" smooth="yes"/>
      <point x="433" y="-10"/>
      <point x="502" y="96"/>
      <point x="502" y="217" type="curve" smooth="yes"/>
      <point x="502" y="324"/>
      <point x="450" y="382"/>
      <point x="369" y="400" type="curve"/>
      <point x="369" y="404" type="line"/>
      <point x="438" y="421"/>
      <point x="478" y="473"/>
      <point x="478" y="572" type="curve" smooth="yes"/>
      <point x="478" y="693"/>
      <point x="398" y="765"/>
    </contour>
    <contour>
      <point x="264" y="630" type="curve" smooth="yes"/>
      <point x="296" y="630"/>
      <point x="315" y="600"/>
      <point x="315" y="546" type="curve" smooth="yes"/>
      <point x="315" y="492"/>
      <point x="297" y="458"/>
      <point x="265" y="458" type="curve" smooth="yes"/>
      <point x="252" y="458" type="line"/>
      <point x="252" y="322" type="line"/>
      <point x="271" y="322" type="line" smooth="yes"/>
      <point x="313" y="322"/>
      <point x="337" y="287"/>
      <point x="337" y="232" type="curve" smooth="yes"/>
      <point x="337" y="159"/>
      <point x="312" y="130"/>
      <point x="272" y="130" type="curve" smooth="yes"/>
      <point x="234" y="130"/>
      <point x="210" y="161"/>
      <point x="210" y="227" type="curve" smooth="yes"/>
      <point x="210" y="521" type="line" smooth="yes"/>
      <point x="210" y="594"/>
      <point x="226" y="630"/>
    </contour>
  </outline>
</glyph>
<glyph name="uni1FCD02C9" format="2">
  <advance width="384"/>
  <anchor x="191" y="546" name="_top"/>
  <anchor x="192" y="885" name="top"/>
  <outline>
    <contour>
      <point x="300" y="875" type="curve"/>
      <point x="169" y="875" type="line"/>
      <point x="169" y="865" type="line"/>
      <point x="186" y="822"/>
      <point x="226" y="756"/>
      <point x="251" y="716" type="curve"/>
      <point x="330" y="716" type="line"/>
      <point x="330" y="728" type="line"/>
      <point x="320" y="761"/>
      <point x="308" y="825"/>
    </contour>
    <contour>
      <point x="338" y="686" type="line"/>
      <point x="43" y="686" type="line"/>
      <point x="43" y="596" type="line"/>
      <point x="338" y="596" type="line"/>
    </contour>
    <contour>
      <point x="103" y="885" type="curve"/>
      <point x="72" y="885"/>
      <point x="54" y="866"/>
      <point x="54" y="838" type="curve"/>
      <point x="54" y="810"/>
      <point x="62" y="790"/>
      <point x="95" y="789" type="curve"/>
      <point x="95" y="765"/>
      <point x="73" y="753"/>
      <point x="48" y="750" type="curve"/>
      <point x="48" y="706" type="line"/>
      <point x="126" y="709"/>
      <point x="167" y="763"/>
      <point x="167" y="809" type="curve" smooth="yes"/>
      <point x="167" y="853"/>
      <point x="145" y="885"/>
    </contour>
  </outline>
</glyph>
<glyph name="uni1FCD0306" format="2">
  <advance width="351"/>
  <anchor x="176" y="544" name="_top"/>
  <anchor x="178" y="924" name="top"/>
  <outline>
    <contour>
      <point x="180" y="594" type="curve" smooth="yes"/>
      <point x="274" y="594"/>
      <point x="318" y="650"/>
      <point x="324" y="730" type="curve"/>
      <point x="249" y="730" type="line"/>
      <point x="242" y="700"/>
      <point x="229" y="679"/>
      <point x="178" y="679" type="curve" smooth="yes"/>
      <point x="133" y="679"/>
      <point x="117" y="704"/>
      <point x="106" y="730" type="curve"/>
      <point x="27" y="730" type="line"/>
      <point x="35" y="649"/>
      <point x="77" y="594"/>
    </contour>
    <contour>
      <point x="35" y="794" type="curve"/>
      <point x="35" y="751" type="line"/>
      <point x="119" y="752"/>
      <point x="155" y="800"/>
      <point x="155" y="849" type="curve" smooth="yes"/>
      <point x="155" y="892"/>
      <point x="132" y="924"/>
      <point x="91" y="924" type="curve" smooth="yes"/>
      <point x="60" y="924"/>
      <point x="41" y="905"/>
      <point x="41" y="877" type="curve" smooth="yes"/>
      <point x="41" y="849"/>
      <point x="50" y="830"/>
      <point x="82" y="828" type="curve"/>
      <point x="82" y="804"/>
      <point x="60" y="797"/>
    </contour>
    <contour>
      <point x="240" y="755" type="curve"/>
      <point x="316" y="755" type="line"/>
      <point x="316" y="767" type="line"/>
      <point x="308" y="800"/>
      <point x="293" y="864"/>
      <point x="285" y="914" type="curve"/>
      <point x="155" y="914" type="line"/>
      <point x="155" y="904" type="line"/>
      <point x="171" y="861"/>
      <point x="213" y="793"/>
    </contour>
  </outline>
</glyph>
<glyph name="uni1FCE02C9" format="2">
  <advance width="382"/>
  <anchor x="189" y="546" name="_top"/>
  <anchor x="204" y="875" name="top"/>
  <outline>
    <contour>
      <point x="199" y="718" type="curve"/>
      <point x="199" y="706" type="line"/>
      <point x="276" y="706" type="line"/>
      <point x="302" y="744"/>
      <point x="343" y="812"/>
      <point x="360" y="855" type="curve"/>
      <point x="360" y="865" type="line"/>
      <point x="229" y="865" type="line"/>
      <point x="221" y="815"/>
      <point x="206" y="751"/>
    </contour>
    <contour>
      <point x="43" y="596" type="line"/>
      <point x="338" y="596" type="line"/>
      <point x="338" y="686" type="line"/>
      <point x="43" y="686" type="line"/>
    </contour>
    <contour>
      <point x="79" y="740" type="curve"/>
      <point x="79" y="696" type="line"/>
      <point x="153" y="696"/>
      <point x="198" y="751"/>
      <point x="198" y="799" type="curve" smooth="yes"/>
      <point x="198" y="843"/>
      <point x="176" y="875"/>
      <point x="135" y="875" type="curve" smooth="yes"/>
      <point x="103" y="875"/>
      <point x="84" y="856"/>
      <point x="84" y="828" type="curve" smooth="yes"/>
      <point x="84" y="800"/>
      <point x="94" y="780"/>
      <point x="125" y="779" type="curve"/>
      <point x="125" y="755"/>
      <point x="104" y="743"/>
    </contour>
  </outline>
</glyph>
<glyph name="uni1FCE0306" format="2">
  <advance width="353"/>
  <anchor x="185" y="544" name="_top"/>
  <anchor x="187" y="924" name="top"/>
  <outline>
    <contour>
      <point x="180" y="594" type="curve" smooth="yes"/>
      <point x="274" y="594"/>
      <point x="318" y="650"/>
      <point x="324" y="730" type="curve"/>
      <point x="249" y="730" type="line"/>
      <point x="242" y="700"/>
      <point x="229" y="679"/>
      <point x="178" y="679" type="curve" smooth="yes"/>
      <point x="133" y="679"/>
      <point x="114" y="695"/>
      <point x="106" y="730" type="curve"/>
      <point x="27" y="730" type="line"/>
      <point x="35" y="649"/>
      <point x="77" y="594"/>
    </contour>
    <contour>
      <point x="63" y="794" type="curve"/>
      <point x="63" y="751" type="line"/>
      <point x="147" y="751"/>
      <point x="183" y="800"/>
      <point x="183" y="849" type="curve" smooth="yes"/>
      <point x="183" y="892"/>
      <point x="160" y="924"/>
      <point x="118" y="924" type="curve" smooth="yes"/>
      <point x="88" y="924"/>
      <point x="69" y="905"/>
      <point x="69" y="877" type="curve" smooth="yes"/>
      <point x="69" y="849"/>
      <point x="78" y="830"/>
      <point x="110" y="828" type="curve"/>
      <point x="110" y="804"/>
      <point x="87" y="797"/>
    </contour>
    <contour>
      <point x="182" y="767" type="curve"/>
      <point x="182" y="755" type="line"/>
      <point x="259" y="755" type="line"/>
      <point x="286" y="793"/>
      <point x="328" y="861"/>
      <point x="344" y="904" type="curve"/>
      <point x="344" y="914" type="line"/>
      <point x="213" y="914" type="line"/>
      <point x="207" y="864"/>
      <point x="193" y="800"/>
    </contour>
  </outline>
</glyph>
<glyph name="uni1FDD02C9" format="2">
  <advance width="384"/>
  <anchor x="191" y="546" name="_top"/>
  <anchor x="192" y="885" name="top"/>
  <outline>
    <contour>
      <point x="306" y="875" type="curve"/>
      <point x="175" y="875" type="line"/>
      <point x="175" y="865" type="line"/>
      <point x="191" y="822"/>
      <point x="230" y="756"/>
      <point x="257" y="716" type="curve"/>
      <point x="335" y="716" type="line"/>
      <point x="335" y="728" type="line"/>
      <point x="328" y="761"/>
      <point x="314" y="825"/>
    </contour>
    <contour>
      <point x="338" y="686" type="line"/>
      <point x="43" y="686" type="line"/>
      <point x="43" y="596" type="line"/>
      <point x="338" y="596" type="line"/>
    </contour>
    <contour>
      <point x="108" y="885" type="curve"/>
      <point x="73" y="885"/>
      <point x="49" y="853"/>
      <point x="49" y="817" type="curve" smooth="yes"/>
      <point x="49" y="761"/>
      <point x="96" y="711"/>
      <point x="169" y="711" type="curve"/>
      <point x="169" y="755" type="line"/>
      <point x="145" y="758"/>
      <point x="122" y="765"/>
      <point x="122" y="789" type="curve"/>
      <point x="148" y="790"/>
      <point x="163" y="810"/>
      <point x="163" y="838" type="curve" smooth="yes"/>
      <point x="163" y="860"/>
      <point x="145" y="885"/>
    </contour>
  </outline>
</glyph>
<glyph name="uni1FDD0306" format="2">
  <advance width="351"/>
  <anchor x="176" y="544" name="_top"/>
  <anchor x="178" y="924" name="top"/>
  <outline>
    <contour>
      <point x="180" y="594" type="curve" smooth="yes"/>
      <point x="274" y="594"/>
      <point x="318" y="650"/>
      <point x="324" y="730" type="curve"/>
      <point x="249" y="730" type="line"/>
      <point x="242" y="700"/>
      <point x="229" y="679"/>
      <point x="178" y="679" type="curve" smooth="yes"/>
      <point x="133" y="679"/>
      <point x="117" y="704"/>
      <point x="106" y="730" type="curve"/>
      <point x="27" y="730" type="line"/>
      <point x="35" y="649"/>
      <point x="77" y="594"/>
    </contour>
    <contour>
      <point x="154" y="751" type="curve"/>
      <point x="154" y="794" type="line"/>
      <point x="129" y="794"/>
      <point x="107" y="804"/>
      <point x="107" y="828" type="curve"/>
      <point x="140" y="830"/>
      <point x="149" y="849"/>
      <point x="149" y="877" type="curve" smooth="yes"/>
      <point x="149" y="905"/>
      <point x="130" y="924"/>
      <point x="99" y="924" type="curve" smooth="yes"/>
      <point x="57" y="924"/>
      <point x="35" y="892"/>
      <point x="35" y="849" type="curve" smooth="yes"/>
      <point x="35" y="800"/>
      <point x="81" y="751"/>
    </contour>
    <contour>
      <point x="235" y="755" type="curve"/>
      <point x="315" y="755" type="line"/>
      <point x="315" y="767" type="line"/>
      <point x="307" y="800"/>
      <point x="292" y="864"/>
      <point x="284" y="914" type="curve"/>
      <point x="154" y="914" type="line"/>
      <point x="154" y="904" type="line"/>
      <point x="170" y="861"/>
      <point x="210" y="795"/>
    </contour>
  </outline>
</glyph>
<glyph name="uni1FDE02C9" format="2">
  <advance width="361"/>
  <anchor x="185" y="546" name="_top"/>
  <anchor x="204" y="885" name="top"/>
  <outline>
    <contour>
      <point x="200" y="716" type="line"/>
      <point x="279" y="716" type="line"/>
      <point x="304" y="756"/>
      <point x="343" y="822"/>
      <point x="360" y="865" type="curve"/>
      <point x="360" y="875" type="line"/>
      <point x="229" y="875" type="line"/>
      <point x="221" y="825"/>
      <point x="206" y="761"/>
      <point x="200" y="728" type="curve"/>
    </contour>
    <contour>
      <point x="43" y="596" type="line"/>
      <point x="338" y="596" type="line"/>
      <point x="338" y="686" type="line"/>
      <point x="43" y="686" type="line"/>
    </contour>
    <contour>
      <point x="184" y="711" type="curve"/>
      <point x="184" y="755" type="line"/>
      <point x="159" y="758"/>
      <point x="137" y="765"/>
      <point x="137" y="789" type="curve"/>
      <point x="170" y="790"/>
      <point x="178" y="810"/>
      <point x="178" y="838" type="curve"/>
      <point x="178" y="866"/>
      <point x="159" y="885"/>
      <point x="129" y="885" type="curve"/>
      <point x="87" y="885"/>
      <point x="65" y="853"/>
      <point x="65" y="809" type="curve"/>
      <point x="65" y="761"/>
      <point x="111" y="711"/>
    </contour>
  </outline>
</glyph>
<glyph name="uni1FDE0306" format="2">
  <advance width="353"/>
  <anchor x="185" y="544" name="_top"/>
  <anchor x="187" y="924" name="top"/>
  <outline>
    <contour>
      <point x="180" y="594" type="curve" smooth="yes"/>
      <point x="274" y="594"/>
      <point x="318" y="650"/>
      <point x="324" y="730" type="curve"/>
      <point x="249" y="730" type="line"/>
      <point x="242" y="700"/>
      <point x="229" y="679"/>
      <point x="178" y="679" type="curve" smooth="yes"/>
      <point x="133" y="679"/>
      <point x="113" y="704"/>
      <point x="106" y="730" type="curve"/>
      <point x="27" y="730" type="line"/>
      <point x="35" y="649"/>
      <point x="77" y="594"/>
    </contour>
    <contour>
      <point x="167" y="751" type="curve"/>
      <point x="167" y="794" type="line"/>
      <point x="142" y="794"/>
      <point x="120" y="804"/>
      <point x="120" y="828" type="curve"/>
      <point x="153" y="830"/>
      <point x="162" y="849"/>
      <point x="162" y="877" type="curve" smooth="yes"/>
      <point x="162" y="905"/>
      <point x="142" y="924"/>
      <point x="112" y="924" type="curve" smooth="yes"/>
      <point x="70" y="924"/>
      <point x="48" y="892"/>
      <point x="48" y="849" type="curve" smooth="yes"/>
      <point x="48" y="800"/>
      <point x="94" y="751"/>
    </contour>
    <contour>
      <point x="182" y="767" type="curve"/>
      <point x="182" y="755" type="line"/>
      <point x="262" y="755" type="line"/>
      <point x="287" y="795"/>
      <point x="327" y="861"/>
      <point x="344" y="904" type="curve"/>
      <point x="344" y="914" type="line"/>
      <point x="213" y="914" type="line"/>
      <point x="205" y="864"/>
      <point x="189" y="800"/>
    </contour>
  </outline>
</glyph>
